<svg width="1077" height="300" viewBox="0 0 1077 300" fill="none" xmlns="http://www.w3.org/2000/svg">
<g clip-path="url(#clip0_247_2)" filter="url(#filter0_i_247_2)">
<rect width="1076.72" height="300" fill="url(#paint0_linear_247_2)"/>
<g filter="url(#filter1_d_247_2)">
<path d="M475.48 122H466.52V84.88H442.2V122H433.24V84.88H408.92V122H399.96V77.2H408.92V83.6L415.32 77.2H433.24C438.445 77.2 441.389 79.376 442.072 83.728L448.6 77.2H466.52C468.995 77.2 471.085 78.096 472.792 79.888C474.584 81.5947 475.48 83.6853 475.48 86.16V122ZM536.34 122H527.38V115.472L519.7 122H500.5C498.025 122 495.892 121.147 494.1 119.44C492.393 117.648 491.54 115.515 491.54 113.04V104.08C491.54 101.605 492.393 99.5147 494.1 97.808C495.892 96.016 498.025 95.12 500.5 95.12H526.1L518.42 102.672H500.5V114.32H527.38V84.88H491.54L499.22 77.2H527.38C529.855 77.2 531.945 78.096 533.652 79.888C535.444 81.5947 536.34 83.6853 536.34 86.16V122ZM563.81 69.52H554.85V59.28H563.81V69.52ZM563.81 139.92C563.81 142.395 562.914 144.485 561.122 146.192C559.415 147.984 557.325 148.88 554.85 148.88H540.77L548.578 141.2H554.85V83.6L563.81 74.64V139.92ZM627.135 113.04C627.135 115.515 626.239 117.648 624.447 119.44C622.74 121.147 620.65 122 618.175 122H591.295C588.82 122 586.687 121.147 584.895 119.44C583.188 117.648 582.335 115.515 582.335 113.04V86.16C582.335 83.6853 583.188 81.5947 584.895 79.888C586.687 78.096 588.82 77.2 591.295 77.2H618.175C620.65 77.2 622.74 78.096 624.447 79.888C626.239 81.5947 627.135 83.6853 627.135 86.16V113.04ZM618.175 114.32V84.88H591.295V114.32H618.175ZM680.925 95.12H671.965V84.88H654.045V122H645.085V77.2H654.045V83.6L660.445 77.2H671.965C674.44 77.2 676.53 78.096 678.237 79.888C680.029 81.5947 680.925 83.6853 680.925 86.16V95.12ZM421.093 246H410.853V238.32L403.173 246H376.293C373.818 246 371.685 245.147 369.893 243.44C368.186 241.648 367.333 239.515 367.333 237.04V183.28H377.573V237.04H410.853V183.28H421.093V246ZM486.323 237.04C486.323 239.515 485.427 241.648 483.635 243.44C481.928 245.147 479.837 246 477.363 246H450.483V272.88H441.523V201.2H450.483V207.6L456.883 201.2H477.363C479.837 201.2 481.928 202.096 483.635 203.888C485.427 205.595 486.323 207.685 486.323 210.16V237.04ZM477.363 238.32V208.88H450.483V244.72L456.883 238.32H477.363ZM549.073 246H540.113V239.6L533.713 246H513.233C510.758 246 508.625 245.147 506.833 243.44C505.126 241.648 504.273 239.515 504.273 237.04V210.16C504.273 207.685 505.126 205.595 506.833 203.888C508.625 202.096 510.758 201.2 513.233 201.2H540.113V180.72L549.073 171.76V246ZM540.113 238.32V202.48L533.713 208.88H513.233V238.32H540.113ZM611.153 246H602.193V239.472L594.513 246H575.312C572.838 246 570.705 245.147 568.913 243.44C567.206 241.648 566.353 239.515 566.353 237.04V228.08C566.353 225.605 567.206 223.515 568.913 221.808C570.705 220.016 572.838 219.12 575.312 219.12H600.913L593.233 226.672H575.312V238.32H602.193V208.88H566.353L574.033 201.2H602.193C604.667 201.2 606.758 202.096 608.465 203.888C610.257 205.595 611.153 207.685 611.153 210.16V246ZM658.463 246H640.543C638.068 246 635.935 245.147 634.143 243.44C632.436 241.648 631.583 239.515 631.583 237.04V208.88H618.782L626.463 201.2H631.583V192.24L640.543 183.28V201.2H658.463V208.88H640.543V238.32H658.463V246ZM716.073 246H680.233C677.758 246 675.625 245.147 673.833 243.44C672.126 241.648 671.273 239.515 671.273 237.04V210.16C671.273 207.685 672.126 205.595 673.833 203.888C675.625 202.096 677.758 201.2 680.233 201.2H707.113C709.587 201.2 711.678 202.096 713.385 203.888C715.177 205.595 716.073 207.685 716.073 210.16V219.12L707.113 228.08H681.513L689.193 220.4H707.113V208.88H680.233V238.32H716.073V246Z" fill="#0B0B0B"/>
</g>
</g>
<defs>
<filter id="filter0_i_247_2" x="0" y="0" width="1076.72" height="309" filterUnits="userSpaceOnUse" color-interpolation-filters="sRGB">
<feFlood flood-opacity="0" result="BackgroundImageFix"/>
<feBlend mode="normal" in="SourceGraphic" in2="BackgroundImageFix" result="shape"/>
<feColorMatrix in="SourceAlpha" type="matrix" values="0 0 0 0 0 0 0 0 0 0 0 0 0 0 0 0 0 0 127 0" result="hardAlpha"/>
<feOffset dy="9"/>
<feGaussianBlur stdDeviation="46.75"/>
<feComposite in2="hardAlpha" operator="arithmetic" k2="-1" k3="1"/>
<feColorMatrix type="matrix" values="0 0 0 0 0 0 0 0 0 0 0 0 0 0 0 0 0 0 1 0"/>
<feBlend mode="normal" in2="shape" result="effect1_innerShadow_247_2"/>
</filter>
<filter id="filter1_d_247_2" x="364.233" y="59.28" width="370.94" height="236.7" filterUnits="userSpaceOnUse" color-interpolation-filters="sRGB">
<feFlood flood-opacity="0" result="BackgroundImageFix"/>
<feColorMatrix in="SourceAlpha" type="matrix" values="0 0 0 0 0 0 0 0 0 0 0 0 0 0 0 0 0 0 127 0" result="hardAlpha"/>
<feOffset dx="8" dy="12"/>
<feGaussianBlur stdDeviation="5.55"/>
<feComposite in2="hardAlpha" operator="out"/>
<feColorMatrix type="matrix" values="0 0 0 0 0.0641667 0 0 0 0 0.06475 0 0 0 0 0.0666667 0 0 0 1 0"/>
<feBlend mode="normal" in2="BackgroundImageFix" result="effect1_dropShadow_247_2"/>
<feBlend mode="normal" in="SourceGraphic" in2="effect1_dropShadow_247_2" result="shape"/>
</filter>
<linearGradient id="paint0_linear_247_2" x1="0" y1="150" x2="1076.72" y2="150" gradientUnits="userSpaceOnUse">
<stop stop-color="#565656"/>
<stop offset="0.5" stop-color="#CDCDCD"/>
<stop offset="1" stop-color="#464646"/>
</linearGradient>
<clipPath id="clip0_247_2">
<rect width="1076.72" height="300" fill="white"/>
</clipPath>
</defs>
</svg>
