<svg width="1077" height="300" viewBox="0 0 1077 300" fill="none" xmlns="http://www.w3.org/2000/svg">
<g clip-path="url(#clip0_248_4)" filter="url(#filter0_i_248_4)">
<rect width="1076.72" height="300" fill="url(#paint0_linear_248_4)"/>
<g filter="url(#filter1_d_248_4)">
<path d="M475.105 122H466.145V84.88H441.825V122H432.865V84.88H408.545V122H399.585V77.2H408.545V83.6L414.945 77.2H432.865C438.07 77.2 441.014 79.376 441.697 83.728L448.225 77.2H466.145C468.62 77.2 470.71 78.096 472.417 79.888C474.209 81.5947 475.105 83.6853 475.105 86.16V122ZM502.045 69.52H493.085V59.28H502.045V69.52ZM502.045 122H493.085V83.6L502.045 74.64V122ZM564.76 122H555.8V84.88H528.92V122H519.96V77.2H528.92V83.6L535.32 77.2H555.8C558.275 77.2 560.365 78.096 562.072 79.888C563.864 81.5947 564.76 83.6853 564.76 86.16V122ZM627.51 113.04C627.51 115.515 626.614 117.648 624.822 119.44C623.115 121.147 621.025 122 618.55 122H591.67C589.195 122 587.062 121.147 585.27 119.44C583.563 117.648 582.71 115.515 582.71 113.04V86.16C582.71 83.6853 583.563 81.5947 585.27 79.888C587.062 78.096 589.195 77.2 591.67 77.2H618.55C621.025 77.2 623.115 78.096 624.822 79.888C626.614 81.5947 627.51 83.6853 627.51 86.16V113.04ZM618.55 114.32V84.88H591.67V114.32H618.55ZM681.3 95.12H672.34V84.88H654.42V122H645.46V77.2H654.42V83.6L660.82 77.2H672.34C674.815 77.2 676.905 78.096 678.612 79.888C680.404 81.5947 681.3 83.6853 681.3 86.16V95.12ZM421.093 246H410.853V238.32L403.173 246H376.293C373.818 246 371.685 245.147 369.893 243.44C368.186 241.648 367.333 239.515 367.333 237.04V183.28H377.573V237.04H410.853V183.28H421.093V246ZM486.323 237.04C486.323 239.515 485.427 241.648 483.635 243.44C481.928 245.147 479.837 246 477.363 246H450.483V272.88H441.523V201.2H450.483V207.6L456.883 201.2H477.363C479.837 201.2 481.928 202.096 483.635 203.888C485.427 205.595 486.323 207.685 486.323 210.16V237.04ZM477.363 238.32V208.88H450.483V244.72L456.883 238.32H477.363ZM549.073 246H540.113V239.6L533.713 246H513.233C510.758 246 508.625 245.147 506.833 243.44C505.126 241.648 504.273 239.515 504.273 237.04V210.16C504.273 207.685 505.126 205.595 506.833 203.888C508.625 202.096 510.758 201.2 513.233 201.2H540.113V180.72L549.073 171.76V246ZM540.113 238.32V202.48L533.713 208.88H513.233V238.32H540.113ZM611.153 246H602.193V239.472L594.513 246H575.312C572.838 246 570.705 245.147 568.913 243.44C567.206 241.648 566.353 239.515 566.353 237.04V228.08C566.353 225.605 567.206 223.515 568.913 221.808C570.705 220.016 572.838 219.12 575.312 219.12H600.913L593.233 226.672H575.312V238.32H602.193V208.88H566.353L574.033 201.2H602.193C604.667 201.2 606.758 202.096 608.465 203.888C610.257 205.595 611.153 207.685 611.153 210.16V246ZM658.463 246H640.543C638.068 246 635.935 245.147 634.143 243.44C632.436 241.648 631.583 239.515 631.583 237.04V208.88H618.782L626.463 201.2H631.583V192.24L640.543 183.28V201.2H658.463V208.88H640.543V238.32H658.463V246ZM716.073 246H680.233C677.758 246 675.625 245.147 673.833 243.44C672.126 241.648 671.273 239.515 671.273 237.04V210.16C671.273 207.685 672.126 205.595 673.833 203.888C675.625 202.096 677.758 201.2 680.233 201.2H707.113C709.587 201.2 711.678 202.096 713.385 203.888C715.177 205.595 716.073 207.685 716.073 210.16V219.12L707.113 228.08H681.513L689.193 220.4H707.113V208.88H680.233V238.32H716.073V246Z" fill="#0B0B0B"/>
</g>
</g>
<defs>
<filter id="filter0_i_248_4" x="0" y="0" width="1076.72" height="309" filterUnits="userSpaceOnUse" color-interpolation-filters="sRGB">
<feFlood flood-opacity="0" result="BackgroundImageFix"/>
<feBlend mode="normal" in="SourceGraphic" in2="BackgroundImageFix" result="shape"/>
<feColorMatrix in="SourceAlpha" type="matrix" values="0 0 0 0 0 0 0 0 0 0 0 0 0 0 0 0 0 0 127 0" result="hardAlpha"/>
<feOffset dy="9"/>
<feGaussianBlur stdDeviation="46.75"/>
<feComposite in2="hardAlpha" operator="arithmetic" k2="-1" k3="1"/>
<feColorMatrix type="matrix" values="0 0 0 0 0 0 0 0 0 0 0 0 0 0 0 0 0 0 1 0"/>
<feBlend mode="normal" in2="shape" result="effect1_innerShadow_248_4"/>
</filter>
<filter id="filter1_d_248_4" x="364.233" y="59.28" width="370.94" height="236.7" filterUnits="userSpaceOnUse" color-interpolation-filters="sRGB">
<feFlood flood-opacity="0" result="BackgroundImageFix"/>
<feColorMatrix in="SourceAlpha" type="matrix" values="0 0 0 0 0 0 0 0 0 0 0 0 0 0 0 0 0 0 127 0" result="hardAlpha"/>
<feOffset dx="8" dy="12"/>
<feGaussianBlur stdDeviation="5.55"/>
<feComposite in2="hardAlpha" operator="out"/>
<feColorMatrix type="matrix" values="0 0 0 0 0.0641667 0 0 0 0 0.06475 0 0 0 0 0.0666667 0 0 0 1 0"/>
<feBlend mode="normal" in2="BackgroundImageFix" result="effect1_dropShadow_248_4"/>
<feBlend mode="normal" in="SourceGraphic" in2="effect1_dropShadow_248_4" result="shape"/>
</filter>
<linearGradient id="paint0_linear_248_4" x1="0" y1="150" x2="1076.72" y2="150" gradientUnits="userSpaceOnUse">
<stop stop-color="#565656"/>
<stop offset="0.5" stop-color="#CDCDCD"/>
<stop offset="1" stop-color="#464646"/>
</linearGradient>
<clipPath id="clip0_248_4">
<rect width="1076.72" height="300" fill="white"/>
</clipPath>
</defs>
</svg>
