<svg width="1440" height="1024" viewBox="0 0 1440 1024" fill="none" xmlns="http://www.w3.org/2000/svg">
<g clip-path="url(#clip0_223_1622)">
<rect width="1440" height="1024" fill="#1966FC"/>
<ellipse cx="1333" cy="120.5" rx="206" ry="203.5" fill="#ABAE17"/>
<ellipse cx="1327" cy="120" rx="196" ry="200" fill="#C8CC14"/>
<path d="M1198 61.679L1428.81 58L1450.2 1425.75L1219.39 1429.43L1198 61.679Z" fill="#432D0D"/>
<g filter="url(#filter0_d_223_1622)">
<rect x="5" y="185" width="279" height="112" rx="56" fill="white"/>
<rect x="5" y="185" width="279" height="112" rx="56" fill="white"/>
<rect x="5" y="185" width="279" height="112" rx="56" fill="white"/>
<rect x="99" y="323" width="279" height="112" rx="56" fill="white"/>
<rect x="99" y="323" width="279" height="112" rx="56" fill="white"/>
<rect x="99" y="323" width="279" height="112" rx="56" fill="white"/>
<g filter="url(#filter1_d_223_1622)">
<rect x="-75" y="-83" width="425" height="127" rx="63.5" fill="white"/>
<rect x="-75" y="-83" width="425" height="127" rx="63.5" fill="white"/>
<rect x="-75" y="-83" width="425" height="127" rx="63.5" fill="white"/>
</g>
<rect x="101" y="70" width="188" height="94" rx="47" fill="white"/>
<rect x="101" y="70" width="188" height="94" rx="47" fill="white"/>
<rect x="101" y="70" width="188" height="94" rx="47" fill="white"/>
<rect x="355" y="77" width="178" height="60" rx="30" fill="white"/>
<rect x="355" y="77" width="178" height="60" rx="30" fill="white"/>
<rect x="355" y="77" width="178" height="60" rx="30" fill="white"/>
<rect x="1152" y="185" width="178" height="60" rx="30" fill="white"/>
<rect x="1152" y="185" width="178" height="60" rx="30" fill="white"/>
<rect x="1152" y="185" width="178" height="60" rx="30" fill="white"/>
<g filter="url(#filter2_d_223_1622)">
<rect x="1389" y="7" width="178" height="60" rx="30" fill="white"/>
<rect x="1389" y="7" width="178" height="60" rx="30" fill="white"/>
<rect x="1389" y="7" width="178" height="60" rx="30" fill="white"/>
</g>
<rect x="1381" y="179" width="178" height="60" rx="30" fill="white"/>
<rect x="1381" y="179" width="178" height="60" rx="30" fill="white"/>
<rect x="1381" y="179" width="178" height="60" rx="30" fill="white"/>
<rect x="1395" y="78" width="178" height="86" rx="43" fill="white"/>
<rect x="1395" y="78" width="178" height="86" rx="43" fill="white"/>
<rect x="1395" y="78" width="178" height="86" rx="43" fill="white"/>
<rect x="350" y="-24" width="188" height="94" rx="47" fill="white"/>
<rect x="350" y="-24" width="188" height="94" rx="47" fill="white"/>
<rect x="350" y="-24" width="188" height="94" rx="47" fill="white"/>
<g filter="url(#filter3_d_223_1622)">
<rect x="350" y="148" width="380" height="145" rx="72.5" fill="white"/>
<rect x="350" y="148" width="380" height="145" rx="72.5" fill="white"/>
<rect x="350" y="148" width="380" height="145" rx="72.5" fill="white"/>
</g>
<g filter="url(#filter4_d_223_1622)">
<rect x="610" y="-62" width="366" height="199" rx="75.5" fill="white"/>
<rect x="610" y="-62" width="366" height="199" rx="75.5" fill="white"/>
<rect x="610" y="-62" width="366" height="199" rx="75.5" fill="white"/>
</g>
<rect x="767" y="258" width="371" height="163" rx="75.5" fill="white"/>
<rect x="767" y="258" width="371" height="163" rx="75.5" fill="white"/>
<rect x="767" y="258" width="371" height="163" rx="75.5" fill="white"/>
<g filter="url(#filter5_d_223_1622)">
<rect x="781" y="164" width="343" height="75" rx="37.5" fill="white"/>
<rect x="781" y="164" width="343" height="75" rx="37.5" fill="white"/>
<rect x="781" y="164" width="343" height="75" rx="37.5" fill="white"/>
</g>
<rect x="1017" y="1" width="372" height="152" rx="75.5" fill="white"/>
<rect x="1017" y="1" width="372" height="152" rx="75.5" fill="white"/>
<rect x="1017" y="1" width="372" height="152" rx="75.5" fill="white"/>
<rect x="1166" y="272" width="387" height="187" rx="75.5" fill="white"/>
<rect x="1166" y="272" width="387" height="187" rx="75.5" fill="white"/>
<rect x="1166" y="272" width="387" height="187" rx="75.5" fill="white"/>
<rect x="406" y="309" width="279" height="112" rx="56" fill="white"/>
<rect x="406" y="309" width="279" height="112" rx="56" fill="white"/>
<rect x="406" y="309" width="279" height="112" rx="56" fill="white"/>
</g>
<path d="M-172 -11.321L58.8084 -15L80.1983 1352.75L-150.61 1356.43L-172 -11.321Z" fill="#432D0D"/>
<g filter="url(#filter6_d_223_1622)">
<path d="M-65 594H1373C1415.53 594 1450 628.474 1450 671V817C1450 859.526 1415.53 894 1373 894H-65V594Z" fill="#5B3F15"/>
</g>
<path d="M-7.19153 517.043L73.8085 594.78H-7.19153V517.043Z" fill="#5B3F15"/>
<path d="M79.3085 893.613L73.8085 594.78M73.8085 594.78L-7.19153 517.043V594.78H73.8085Z" stroke="#5B3F15"/>
<path d="M91.8085 887.555L-3.19153 942.072V887.555H91.8085Z" fill="#5B3F15" stroke="#5B3F15"/>
<path d="M228.764 319.447L154.378 339.19L152.86 306.73L228.764 319.447Z" fill="url(#paint0_linear_223_1622)"/>
<ellipse cx="158.961" cy="483.505" rx="70.8969" ry="133.894" transform="rotate(2.18974 158.961 483.505)" fill="#010402"/>
<ellipse cx="158.961" cy="483.505" rx="70.8969" ry="133.894" transform="rotate(2.18974 158.961 483.505)" fill="url(#paint1_linear_223_1622)"/>
<ellipse cx="162" cy="318.5" rx="33" ry="58.5" fill="black"/>
<path d="M1009.6 311.412L1086.55 309.909L1080.31 341.8L1009.6 311.412Z" fill="url(#paint2_linear_223_1622)"/>
<ellipse cx="1087.96" cy="481.505" rx="70.8969" ry="133.894" transform="rotate(2.18974 1087.96 481.505)" fill="#010402"/>
<ellipse cx="1087.96" cy="481.505" rx="70.8969" ry="133.894" transform="rotate(2.18974 1087.96 481.505)" fill="url(#paint3_linear_223_1622)"/>
<ellipse cx="1091" cy="316.5" rx="33" ry="58.5" fill="black"/>
<ellipse cx="134" cy="12" rx="33" ry="64" fill="#72FB07"/>
<ellipse cx="134" cy="12" rx="33" ry="64" fill="#72FB07"/>
<ellipse cx="134" cy="12" rx="33" ry="64" fill="#72FB07"/>
<ellipse cx="182" cy="12" rx="33" ry="64" fill="#72FB07"/>
<ellipse cx="182" cy="12" rx="33" ry="64" fill="#72FB07"/>
<ellipse cx="182" cy="12" rx="33" ry="64" fill="#72FB07"/>
<ellipse cx="225" cy="12" rx="33" ry="64" fill="#72FB07"/>
<ellipse cx="225" cy="12" rx="33" ry="64" fill="#72FB07"/>
<ellipse cx="225" cy="12" rx="33" ry="64" fill="#72FB07"/>
<ellipse cx="268" cy="12" rx="33" ry="64" fill="#72FB07"/>
<ellipse cx="268" cy="12" rx="33" ry="64" fill="#72FB07"/>
<ellipse cx="268" cy="12" rx="33" ry="64" fill="#72FB07"/>
<ellipse cx="-23" cy="16" rx="33" ry="64" fill="#72FB07"/>
<ellipse cx="-23" cy="16" rx="33" ry="64" fill="#72FB07"/>
<ellipse cx="-23" cy="16" rx="33" ry="64" fill="#72FB07"/>
<ellipse cx="25" cy="16" rx="33" ry="64" fill="#72FB07"/>
<ellipse cx="25" cy="16" rx="33" ry="64" fill="#72FB07"/>
<ellipse cx="25" cy="16" rx="33" ry="64" fill="#72FB07"/>
<ellipse cx="68" cy="16" rx="33" ry="64" fill="#72FB07"/>
<ellipse cx="68" cy="16" rx="33" ry="64" fill="#72FB07"/>
<ellipse cx="68" cy="16" rx="33" ry="64" fill="#72FB07"/>
<ellipse cx="111" cy="16" rx="33" ry="64" fill="#72FB07"/>
<ellipse cx="111" cy="16" rx="33" ry="64" fill="#72FB07"/>
<ellipse cx="111" cy="16" rx="33" ry="64" fill="#72FB07"/>
<ellipse cx="316" cy="12" rx="33" ry="64" fill="#72FB07"/>
<ellipse cx="316" cy="12" rx="33" ry="64" fill="#72FB07"/>
<ellipse cx="316" cy="12" rx="33" ry="64" fill="#72FB07"/>
<ellipse cx="359" cy="12" rx="33" ry="64" fill="#72FB07"/>
<ellipse cx="359" cy="12" rx="33" ry="64" fill="#72FB07"/>
<ellipse cx="359" cy="12" rx="33" ry="64" fill="#72FB07"/>
<ellipse cx="402" cy="12" rx="33" ry="64" fill="#72FB07"/>
<ellipse cx="402" cy="12" rx="33" ry="64" fill="#72FB07"/>
<ellipse cx="402" cy="12" rx="33" ry="64" fill="#72FB07"/>
<ellipse cx="450" cy="12" rx="33" ry="64" fill="#72FB07"/>
<ellipse cx="450" cy="12" rx="33" ry="64" fill="#72FB07"/>
<ellipse cx="450" cy="12" rx="33" ry="64" fill="#72FB07"/>
<ellipse cx="478" cy="12" rx="33" ry="64" fill="#72FB07"/>
<ellipse cx="478" cy="12" rx="33" ry="64" fill="#72FB07"/>
<ellipse cx="478" cy="12" rx="33" ry="64" fill="#72FB07"/>
<ellipse cx="521" cy="12" rx="33" ry="64" fill="#72FB07"/>
<ellipse cx="521" cy="12" rx="33" ry="64" fill="#72FB07"/>
<ellipse cx="521" cy="12" rx="33" ry="64" fill="#72FB07"/>
<ellipse cx="569" cy="12" rx="33" ry="64" fill="#72FB07"/>
<ellipse cx="569" cy="12" rx="33" ry="64" fill="#72FB07"/>
<ellipse cx="569" cy="12" rx="33" ry="64" fill="#72FB07"/>
<ellipse cx="607" cy="12" rx="33" ry="64" fill="#72FB07"/>
<ellipse cx="607" cy="12" rx="33" ry="64" fill="#72FB07"/>
<ellipse cx="607" cy="12" rx="33" ry="64" fill="#72FB07"/>
<ellipse cx="650" cy="12" rx="33" ry="64" fill="#72FB07"/>
<ellipse cx="650" cy="12" rx="33" ry="64" fill="#72FB07"/>
<ellipse cx="650" cy="12" rx="33" ry="64" fill="#72FB07"/>
<ellipse cx="698" cy="12" rx="33" ry="64" fill="#72FB07"/>
<ellipse cx="698" cy="12" rx="33" ry="64" fill="#72FB07"/>
<ellipse cx="698" cy="12" rx="33" ry="64" fill="#72FB07"/>
<ellipse cx="759" cy="9" rx="33" ry="64" fill="#72FB07"/>
<ellipse cx="759" cy="9" rx="33" ry="64" fill="#72FB07"/>
<ellipse cx="759" cy="9" rx="33" ry="64" fill="#72FB07"/>
<ellipse cx="807" cy="9" rx="33" ry="64" fill="#72FB07"/>
<ellipse cx="807" cy="9" rx="33" ry="64" fill="#72FB07"/>
<ellipse cx="807" cy="9" rx="33" ry="64" fill="#72FB07"/>
<ellipse cx="716" cy="9" rx="33" ry="64" fill="#72FB07"/>
<ellipse cx="716" cy="9" rx="33" ry="64" fill="#72FB07"/>
<ellipse cx="716" cy="9" rx="33" ry="64" fill="#72FB07"/>
<ellipse cx="716" cy="9" rx="33" ry="64" fill="#72FB07"/>
<ellipse cx="716" cy="9" rx="33" ry="64" fill="#72FB07"/>
<ellipse cx="716" cy="9" rx="33" ry="64" fill="#72FB07"/>
<ellipse cx="759" cy="9" rx="33" ry="64" fill="#72FB07"/>
<ellipse cx="759" cy="9" rx="33" ry="64" fill="#72FB07"/>
<ellipse cx="759" cy="9" rx="33" ry="64" fill="#72FB07"/>
<ellipse cx="807" cy="9" rx="33" ry="64" fill="#72FB07"/>
<ellipse cx="807" cy="9" rx="33" ry="64" fill="#72FB07"/>
<ellipse cx="807" cy="9" rx="33" ry="64" fill="#72FB07"/>
<ellipse cx="-28" cy="80" rx="33" ry="64" fill="#72FB07"/>
<ellipse cx="-28" cy="80" rx="33" ry="64" fill="#72FB07"/>
<ellipse cx="-28" cy="80" rx="33" ry="64" fill="#72FB07"/>
<ellipse cx="15" cy="80" rx="33" ry="64" fill="#72FB07"/>
<ellipse cx="15" cy="80" rx="33" ry="64" fill="#72FB07"/>
<ellipse cx="15" cy="80" rx="33" ry="64" fill="#72FB07"/>
<ellipse cx="63" cy="80" rx="33" ry="64" fill="#72FB07"/>
<ellipse cx="63" cy="80" rx="33" ry="64" fill="#72FB07"/>
<ellipse cx="63" cy="80" rx="33" ry="64" fill="#72FB07"/>
<ellipse cx="106" cy="80" rx="33" ry="64" fill="#72FB07"/>
<ellipse cx="106" cy="80" rx="33" ry="64" fill="#72FB07"/>
<ellipse cx="106" cy="80" rx="33" ry="64" fill="#72FB07"/>
<ellipse cx="149" cy="80" rx="33" ry="64" fill="#72FB07"/>
<ellipse cx="149" cy="80" rx="33" ry="64" fill="#72FB07"/>
<ellipse cx="149" cy="80" rx="33" ry="64" fill="#72FB07"/>
<ellipse cx="197" cy="80" rx="33" ry="64" fill="#72FB07"/>
<ellipse cx="197" cy="80" rx="33" ry="64" fill="#72FB07"/>
<ellipse cx="197" cy="80" rx="33" ry="64" fill="#72FB07"/>
<ellipse cx="240" cy="80" rx="33" ry="64" fill="#72FB07"/>
<ellipse cx="240" cy="80" rx="33" ry="64" fill="#72FB07"/>
<ellipse cx="240" cy="80" rx="33" ry="64" fill="#72FB07"/>
<ellipse cx="283" cy="80" rx="33" ry="64" fill="#72FB07"/>
<ellipse cx="283" cy="80" rx="33" ry="64" fill="#72FB07"/>
<ellipse cx="283" cy="80" rx="33" ry="64" fill="#72FB07"/>
<ellipse cx="331" cy="80" rx="33" ry="64" fill="#72FB07"/>
<ellipse cx="331" cy="80" rx="33" ry="64" fill="#72FB07"/>
<ellipse cx="331" cy="80" rx="33" ry="64" fill="#72FB07"/>
<ellipse cx="359" cy="80" rx="33" ry="64" fill="#72FB07"/>
<ellipse cx="359" cy="80" rx="33" ry="64" fill="#72FB07"/>
<ellipse cx="359" cy="80" rx="33" ry="64" fill="#72FB07"/>
<ellipse cx="402" cy="80" rx="33" ry="64" fill="#72FB07"/>
<ellipse cx="402" cy="80" rx="33" ry="64" fill="#72FB07"/>
<ellipse cx="402" cy="80" rx="33" ry="64" fill="#72FB07"/>
<ellipse cx="450" cy="80" rx="33" ry="64" fill="#72FB07"/>
<ellipse cx="450" cy="80" rx="33" ry="64" fill="#72FB07"/>
<ellipse cx="450" cy="80" rx="33" ry="64" fill="#72FB07"/>
<ellipse cx="402" cy="80" rx="33" ry="64" fill="#72FB07"/>
<ellipse cx="402" cy="80" rx="33" ry="64" fill="#72FB07"/>
<ellipse cx="402" cy="80" rx="33" ry="64" fill="#72FB07"/>
<ellipse cx="450" cy="80" rx="33" ry="64" fill="#72FB07"/>
<ellipse cx="450" cy="80" rx="33" ry="64" fill="#72FB07"/>
<ellipse cx="450" cy="80" rx="33" ry="64" fill="#72FB07"/>
<ellipse cx="488" cy="80" rx="33" ry="64" fill="#72FB07"/>
<ellipse cx="488" cy="80" rx="33" ry="64" fill="#72FB07"/>
<ellipse cx="488" cy="80" rx="33" ry="64" fill="#72FB07"/>
<ellipse cx="531" cy="80" rx="33" ry="64" fill="#72FB07"/>
<ellipse cx="531" cy="80" rx="33" ry="64" fill="#72FB07"/>
<ellipse cx="531" cy="80" rx="33" ry="64" fill="#72FB07"/>
<ellipse cx="579" cy="80" rx="33" ry="64" fill="#72FB07"/>
<ellipse cx="579" cy="80" rx="33" ry="64" fill="#72FB07"/>
<ellipse cx="579" cy="80" rx="33" ry="64" fill="#72FB07"/>
<ellipse cx="597" cy="77" rx="33" ry="64" fill="#72FB07"/>
<ellipse cx="597" cy="77" rx="33" ry="64" fill="#72FB07"/>
<ellipse cx="597" cy="77" rx="33" ry="64" fill="#72FB07"/>
<ellipse cx="640" cy="77" rx="33" ry="64" fill="#72FB07"/>
<ellipse cx="640" cy="77" rx="33" ry="64" fill="#72FB07"/>
<ellipse cx="640" cy="77" rx="33" ry="64" fill="#72FB07"/>
<ellipse cx="688" cy="77" rx="33" ry="64" fill="#72FB07"/>
<ellipse cx="688" cy="77" rx="33" ry="64" fill="#72FB07"/>
<ellipse cx="688" cy="77" rx="33" ry="64" fill="#72FB07"/>
<ellipse cx="597" cy="77" rx="33" ry="64" fill="#72FB07"/>
<ellipse cx="597" cy="77" rx="33" ry="64" fill="#72FB07"/>
<ellipse cx="597" cy="77" rx="33" ry="64" fill="#72FB07"/>
<ellipse cx="640" cy="77" rx="33" ry="64" fill="#72FB07"/>
<ellipse cx="640" cy="77" rx="33" ry="64" fill="#72FB07"/>
<ellipse cx="640" cy="77" rx="33" ry="64" fill="#72FB07"/>
<ellipse cx="688" cy="77" rx="33" ry="64" fill="#72FB07"/>
<ellipse cx="688" cy="77" rx="33" ry="64" fill="#72FB07"/>
<ellipse cx="688" cy="77" rx="33" ry="64" fill="#72FB07"/>
<ellipse cx="-28" cy="170" rx="33" ry="64" fill="#72FB07"/>
<ellipse cx="-28" cy="170" rx="33" ry="64" fill="#72FB07"/>
<ellipse cx="-28" cy="170" rx="33" ry="64" fill="#72FB07"/>
<ellipse cx="15" cy="170" rx="33" ry="64" fill="#72FB07"/>
<ellipse cx="15" cy="170" rx="33" ry="64" fill="#72FB07"/>
<ellipse cx="15" cy="170" rx="33" ry="64" fill="#72FB07"/>
<ellipse cx="63" cy="170" rx="33" ry="64" fill="#72FB07"/>
<ellipse cx="63" cy="170" rx="33" ry="64" fill="#72FB07"/>
<ellipse cx="63" cy="170" rx="33" ry="64" fill="#72FB07"/>
<ellipse cx="106" cy="170" rx="33" ry="64" fill="#72FB07"/>
<ellipse cx="106" cy="170" rx="33" ry="64" fill="#72FB07"/>
<ellipse cx="106" cy="170" rx="33" ry="64" fill="#72FB07"/>
<ellipse cx="149" cy="170" rx="33" ry="64" fill="#72FB07"/>
<ellipse cx="149" cy="170" rx="33" ry="64" fill="#72FB07"/>
<ellipse cx="149" cy="170" rx="33" ry="64" fill="#72FB07"/>
<ellipse cx="197" cy="170" rx="33" ry="64" fill="#72FB07"/>
<ellipse cx="197" cy="170" rx="33" ry="64" fill="#72FB07"/>
<ellipse cx="197" cy="170" rx="33" ry="64" fill="#72FB07"/>
<ellipse cx="225" cy="170" rx="33" ry="64" fill="#72FB07"/>
<ellipse cx="225" cy="170" rx="33" ry="64" fill="#72FB07"/>
<ellipse cx="225" cy="170" rx="33" ry="64" fill="#72FB07"/>
<ellipse cx="268" cy="170" rx="33" ry="64" fill="#72FB07"/>
<ellipse cx="268" cy="170" rx="33" ry="64" fill="#72FB07"/>
<ellipse cx="268" cy="170" rx="33" ry="64" fill="#72FB07"/>
<ellipse cx="316" cy="170" rx="33" ry="64" fill="#72FB07"/>
<ellipse cx="316" cy="170" rx="33" ry="64" fill="#72FB07"/>
<ellipse cx="316" cy="170" rx="33" ry="64" fill="#72FB07"/>
<ellipse cx="354" cy="170" rx="33" ry="64" fill="#72FB07"/>
<ellipse cx="354" cy="170" rx="33" ry="64" fill="#72FB07"/>
<ellipse cx="354" cy="170" rx="33" ry="64" fill="#72FB07"/>
<ellipse cx="397" cy="170" rx="33" ry="64" fill="#72FB07"/>
<ellipse cx="397" cy="170" rx="33" ry="64" fill="#72FB07"/>
<ellipse cx="397" cy="170" rx="33" ry="64" fill="#72FB07"/>
<ellipse cx="445" cy="170" rx="33" ry="64" fill="#72FB07"/>
<ellipse cx="445" cy="170" rx="33" ry="64" fill="#72FB07"/>
<ellipse cx="445" cy="170" rx="33" ry="64" fill="#72FB07"/>
<ellipse cx="463" cy="167" rx="33" ry="64" fill="#72FB07"/>
<ellipse cx="463" cy="167" rx="33" ry="64" fill="#72FB07"/>
<ellipse cx="463" cy="167" rx="33" ry="64" fill="#72FB07"/>
<ellipse cx="506" cy="167" rx="33" ry="64" fill="#72FB07"/>
<ellipse cx="506" cy="167" rx="33" ry="64" fill="#72FB07"/>
<ellipse cx="506" cy="167" rx="33" ry="64" fill="#72FB07"/>
<ellipse cx="554" cy="167" rx="33" ry="64" fill="#72FB07"/>
<ellipse cx="554" cy="167" rx="33" ry="64" fill="#72FB07"/>
<ellipse cx="554" cy="167" rx="33" ry="64" fill="#72FB07"/>
<ellipse cx="300" cy="212" rx="33" ry="64" fill="#72FB07"/>
<ellipse cx="300" cy="212" rx="33" ry="64" fill="#72FB07"/>
<ellipse cx="300" cy="212" rx="33" ry="64" fill="#72FB07"/>
<ellipse cx="345" cy="238" rx="33" ry="64" fill="#72FB07"/>
<ellipse cx="345" cy="238" rx="33" ry="64" fill="#72FB07"/>
<ellipse cx="345" cy="238" rx="33" ry="64" fill="#72FB07"/>
<ellipse cx="397" cy="212" rx="33" ry="64" fill="#72FB07"/>
<ellipse cx="397" cy="212" rx="33" ry="64" fill="#72FB07"/>
<ellipse cx="397" cy="212" rx="33" ry="64" fill="#72FB07"/>
<ellipse cx="832" cy="3" rx="33" ry="64" fill="#72FB07"/>
<ellipse cx="832" cy="3" rx="33" ry="64" fill="#72FB07"/>
<ellipse cx="832" cy="3" rx="33" ry="64" fill="#72FB07"/>
<ellipse cx="1062" cy="27" rx="33" ry="64" fill="#72FB07"/>
<ellipse cx="1062" cy="27" rx="33" ry="64" fill="#72FB07"/>
<ellipse cx="1062" cy="27" rx="33" ry="64" fill="#72FB07"/>
<ellipse cx="1042" cy="177" rx="33" ry="64" fill="#72FB07"/>
<ellipse cx="1042" cy="177" rx="33" ry="64" fill="#72FB07"/>
<ellipse cx="1042" cy="177" rx="33" ry="64" fill="#72FB07"/>
<ellipse cx="1042" cy="254" rx="33" ry="64" fill="#72FB07"/>
<ellipse cx="1042" cy="254" rx="33" ry="64" fill="#72FB07"/>
<ellipse cx="1042" cy="254" rx="33" ry="64" fill="#72FB07"/>
<ellipse cx="1056" cy="103" rx="33" ry="64" fill="#72FB07"/>
<ellipse cx="1056" cy="103" rx="33" ry="64" fill="#72FB07"/>
<ellipse cx="1056" cy="103" rx="33" ry="64" fill="#72FB07"/>
<ellipse cx="1012" cy="235" rx="33" ry="64" fill="#72FB07"/>
<ellipse cx="1012" cy="235" rx="33" ry="64" fill="#72FB07"/>
<ellipse cx="1012" cy="235" rx="33" ry="64" fill="#72FB07"/>
<ellipse cx="1005" cy="186" rx="33" ry="64" fill="#72FB07"/>
<ellipse cx="1005" cy="186" rx="33" ry="64" fill="#72FB07"/>
<ellipse cx="1005" cy="186" rx="33" ry="64" fill="#72FB07"/>
<ellipse cx="1005" cy="77" rx="33" ry="64" fill="#72FB07"/>
<ellipse cx="1005" cy="77" rx="33" ry="64" fill="#72FB07"/>
<ellipse cx="1005" cy="77" rx="33" ry="64" fill="#72FB07"/>
<ellipse cx="1005" cy="39" rx="33" ry="64" fill="#72FB07"/>
<ellipse cx="1005" cy="39" rx="33" ry="64" fill="#72FB07"/>
<ellipse cx="1005" cy="39" rx="33" ry="64" fill="#72FB07"/>
<ellipse cx="959" cy="37" rx="33" ry="64" fill="#72FB07"/>
<ellipse cx="959" cy="37" rx="33" ry="64" fill="#72FB07"/>
<ellipse cx="959" cy="37" rx="33" ry="64" fill="#72FB07"/>
<ellipse cx="974" cy="115" rx="33" ry="64" fill="#72FB07"/>
<ellipse cx="974" cy="115" rx="33" ry="64" fill="#72FB07"/>
<ellipse cx="974" cy="115" rx="33" ry="64" fill="#72FB07"/>
<ellipse cx="919" cy="37" rx="33" ry="64" fill="#72FB07"/>
<ellipse cx="919" cy="37" rx="33" ry="64" fill="#72FB07"/>
<ellipse cx="919" cy="37" rx="33" ry="64" fill="#72FB07"/>
<ellipse cx="880" cy="37" rx="33" ry="64" fill="#72FB07"/>
<ellipse cx="880" cy="37" rx="33" ry="64" fill="#72FB07"/>
<ellipse cx="880" cy="37" rx="33" ry="64" fill="#72FB07"/>
<ellipse cx="463" cy="167" rx="33" ry="64" fill="#72FB07"/>
<ellipse cx="463" cy="167" rx="33" ry="64" fill="#72FB07"/>
<ellipse cx="463" cy="167" rx="33" ry="64" fill="#72FB07"/>
<ellipse cx="506" cy="167" rx="33" ry="64" fill="#72FB07"/>
<ellipse cx="506" cy="167" rx="33" ry="64" fill="#72FB07"/>
<ellipse cx="506" cy="167" rx="33" ry="64" fill="#72FB07"/>
<ellipse cx="220" cy="238" rx="33" ry="64" fill="#72FB07"/>
<ellipse cx="220" cy="238" rx="33" ry="64" fill="#72FB07"/>
<ellipse cx="220" cy="238" rx="33" ry="64" fill="#72FB07"/>
<ellipse cx="-26" cy="221" rx="33" ry="64" fill="#72FB07"/>
<ellipse cx="-26" cy="221" rx="33" ry="64" fill="#72FB07"/>
<ellipse cx="-26" cy="221" rx="33" ry="64" fill="#72FB07"/>
<ellipse cx="2" cy="221" rx="33" ry="64" fill="#72FB07"/>
<ellipse cx="2" cy="221" rx="33" ry="64" fill="#72FB07"/>
<ellipse cx="2" cy="221" rx="33" ry="64" fill="#72FB07"/>
<ellipse cx="45" cy="221" rx="33" ry="64" fill="#72FB07"/>
<ellipse cx="45" cy="221" rx="33" ry="64" fill="#72FB07"/>
<ellipse cx="45" cy="221" rx="33" ry="64" fill="#72FB07"/>
<ellipse cx="93" cy="221" rx="33" ry="64" fill="#72FB07"/>
<ellipse cx="93" cy="221" rx="33" ry="64" fill="#72FB07"/>
<ellipse cx="93" cy="221" rx="33" ry="64" fill="#72FB07"/>
<ellipse cx="131" cy="221" rx="33" ry="64" fill="#72FB07"/>
<ellipse cx="131" cy="221" rx="33" ry="64" fill="#72FB07"/>
<ellipse cx="131" cy="221" rx="33" ry="64" fill="#72FB07"/>
<ellipse cx="174" cy="221" rx="33" ry="64" fill="#72FB07"/>
<ellipse cx="174" cy="221" rx="33" ry="64" fill="#72FB07"/>
<ellipse cx="174" cy="221" rx="33" ry="64" fill="#72FB07"/>
<ellipse cx="-23" cy="307" rx="33" ry="64" fill="#72FB07"/>
<ellipse cx="-23" cy="307" rx="33" ry="64" fill="#72FB07"/>
<ellipse cx="-23" cy="307" rx="33" ry="64" fill="#72FB07"/>
<ellipse cx="20" cy="307" rx="33" ry="64" fill="#72FB07"/>
<ellipse cx="20" cy="307" rx="33" ry="64" fill="#72FB07"/>
<ellipse cx="20" cy="307" rx="33" ry="64" fill="#72FB07"/>
<ellipse cx="68" cy="307" rx="33" ry="64" fill="#72FB07"/>
<ellipse cx="68" cy="307" rx="33" ry="64" fill="#72FB07"/>
<ellipse cx="68" cy="307" rx="33" ry="64" fill="#72FB07"/>
<ellipse cx="86" cy="304" rx="33" ry="64" fill="#72FB07"/>
<ellipse cx="86" cy="304" rx="33" ry="64" fill="#72FB07"/>
<ellipse cx="86" cy="304" rx="33" ry="64" fill="#72FB07"/>
<ellipse cx="129" cy="304" rx="33" ry="64" fill="#72FB07"/>
<ellipse cx="129" cy="304" rx="33" ry="64" fill="#72FB07"/>
<ellipse cx="129" cy="304" rx="33" ry="64" fill="#72FB07"/>
<ellipse cx="177" cy="304" rx="33" ry="64" fill="#72FB07"/>
<ellipse cx="177" cy="304" rx="33" ry="64" fill="#72FB07"/>
<ellipse cx="177" cy="304" rx="33" ry="64" fill="#72FB07"/>
<ellipse cx="86" cy="304" rx="33" ry="64" fill="#72FB07"/>
<ellipse cx="86" cy="304" rx="33" ry="64" fill="#72FB07"/>
<ellipse cx="86" cy="304" rx="33" ry="64" fill="#72FB07"/>
<ellipse cx="129" cy="304" rx="33" ry="64" fill="#72FB07"/>
<ellipse cx="129" cy="304" rx="33" ry="64" fill="#72FB07"/>
<ellipse cx="129" cy="304" rx="33" ry="64" fill="#72FB07"/>
<ellipse cx="177" cy="304" rx="33" ry="64" fill="#72FB07"/>
<ellipse cx="177" cy="304" rx="33" ry="64" fill="#72FB07"/>
<ellipse cx="177" cy="304" rx="33" ry="64" fill="#72FB07"/>
<ellipse cx="402" cy="80" rx="33" ry="64" fill="#72FB07"/>
<ellipse cx="402" cy="80" rx="33" ry="64" fill="#72FB07"/>
<ellipse cx="402" cy="80" rx="33" ry="64" fill="#72FB07"/>
<ellipse cx="450" cy="80" rx="33" ry="64" fill="#72FB07"/>
<ellipse cx="450" cy="80" rx="33" ry="64" fill="#72FB07"/>
<ellipse cx="450" cy="80" rx="33" ry="64" fill="#72FB07"/>
<ellipse cx="402" cy="80" rx="33" ry="64" fill="#72FB07"/>
<ellipse cx="402" cy="80" rx="33" ry="64" fill="#72FB07"/>
<ellipse cx="402" cy="80" rx="33" ry="64" fill="#72FB07"/>
<ellipse cx="450" cy="80" rx="33" ry="64" fill="#72FB07"/>
<ellipse cx="450" cy="80" rx="33" ry="64" fill="#72FB07"/>
<ellipse cx="450" cy="80" rx="33" ry="64" fill="#72FB07"/>
<ellipse cx="1311" cy="94" rx="33" ry="64" fill="#72FB07"/>
<ellipse cx="1311" cy="94" rx="33" ry="64" fill="#72FB07"/>
<ellipse cx="1311" cy="94" rx="33" ry="64" fill="#72FB07"/>
<ellipse cx="1359" cy="94" rx="33" ry="64" fill="#72FB07"/>
<ellipse cx="1359" cy="94" rx="33" ry="64" fill="#72FB07"/>
<ellipse cx="1359" cy="94" rx="33" ry="64" fill="#72FB07"/>
<ellipse cx="1402" cy="94" rx="33" ry="64" fill="#72FB07"/>
<ellipse cx="1402" cy="94" rx="33" ry="64" fill="#72FB07"/>
<ellipse cx="1402" cy="94" rx="33" ry="64" fill="#72FB07"/>
<ellipse cx="1445" cy="94" rx="33" ry="64" fill="#72FB07"/>
<ellipse cx="1445" cy="94" rx="33" ry="64" fill="#72FB07"/>
<ellipse cx="1445" cy="94" rx="33" ry="64" fill="#72FB07"/>
<ellipse cx="1392" cy="49" rx="33" ry="64" fill="#72FB07"/>
<ellipse cx="1392" cy="49" rx="33" ry="64" fill="#72FB07"/>
<ellipse cx="1392" cy="49" rx="33" ry="64" fill="#72FB07"/>
<ellipse cx="1333" cy="37" rx="33" ry="64" fill="#72FB07"/>
<ellipse cx="1333" cy="37" rx="33" ry="64" fill="#72FB07"/>
<ellipse cx="1333" cy="37" rx="33" ry="64" fill="#72FB07"/>
<ellipse cx="1288" cy="40" rx="33" ry="64" fill="#72FB07"/>
<ellipse cx="1288" cy="40" rx="33" ry="64" fill="#72FB07"/>
<ellipse cx="1288" cy="40" rx="33" ry="64" fill="#72FB07"/>
<ellipse cx="1250" cy="113" rx="33" ry="64" fill="#72FB07"/>
<ellipse cx="1250" cy="113" rx="33" ry="64" fill="#72FB07"/>
<ellipse cx="1250" cy="113" rx="33" ry="64" fill="#72FB07"/>
<ellipse cx="1242" cy="56" rx="33" ry="64" fill="#72FB07"/>
<ellipse cx="1242" cy="56" rx="33" ry="64" fill="#72FB07"/>
<ellipse cx="1242" cy="56" rx="33" ry="64" fill="#72FB07"/>
<ellipse cx="1202" cy="27" rx="33" ry="64" fill="#72FB07"/>
<ellipse cx="1202" cy="27" rx="33" ry="64" fill="#72FB07"/>
<ellipse cx="1202" cy="27" rx="33" ry="64" fill="#72FB07"/>
<ellipse cx="1185" cy="87" rx="33" ry="64" fill="#72FB07"/>
<ellipse cx="1185" cy="87" rx="33" ry="64" fill="#72FB07"/>
<ellipse cx="1185" cy="87" rx="33" ry="64" fill="#72FB07"/>
<ellipse cx="1144" cy="134" rx="33" ry="64" fill="#72FB07"/>
<ellipse cx="1144" cy="134" rx="33" ry="64" fill="#72FB07"/>
<ellipse cx="1144" cy="134" rx="33" ry="64" fill="#72FB07"/>
<ellipse cx="1094" cy="226" rx="33" ry="64" fill="#72FB07"/>
<ellipse cx="1094" cy="226" rx="33" ry="64" fill="#72FB07"/>
<ellipse cx="1094" cy="226" rx="33" ry="64" fill="#72FB07"/>
<ellipse cx="1160" cy="40" rx="33" ry="64" fill="#72FB07"/>
<ellipse cx="1160" cy="40" rx="33" ry="64" fill="#72FB07"/>
<ellipse cx="1160" cy="40" rx="33" ry="64" fill="#72FB07"/>
<ellipse cx="1108" cy="40" rx="33" ry="64" fill="#72FB07"/>
<ellipse cx="1108" cy="40" rx="33" ry="64" fill="#72FB07"/>
<ellipse cx="1108" cy="40" rx="33" ry="64" fill="#72FB07"/>
<ellipse cx="1417" cy="485" rx="33" ry="64" fill="#72FB07"/>
<ellipse cx="1417" cy="485" rx="33" ry="64" fill="#72FB07"/>
<ellipse cx="1417" cy="485" rx="33" ry="64" fill="#72FB07"/>
<ellipse cx="1363" cy="471" rx="33" ry="64" fill="#72FB07"/>
<ellipse cx="1363" cy="471" rx="33" ry="64" fill="#72FB07"/>
<ellipse cx="1363" cy="471" rx="33" ry="64" fill="#72FB07"/>
<ellipse cx="1182" cy="158" rx="33" ry="64" fill="#72FB07"/>
<ellipse cx="1182" cy="158" rx="33" ry="64" fill="#72FB07"/>
<ellipse cx="1182" cy="158" rx="33" ry="64" fill="#72FB07"/>
<ellipse cx="1225" cy="158" rx="33" ry="64" fill="#72FB07"/>
<ellipse cx="1225" cy="158" rx="33" ry="64" fill="#72FB07"/>
<ellipse cx="1225" cy="158" rx="33" ry="64" fill="#72FB07"/>
<ellipse cx="1273" cy="158" rx="33" ry="64" fill="#72FB07"/>
<ellipse cx="1273" cy="158" rx="33" ry="64" fill="#72FB07"/>
<ellipse cx="1273" cy="158" rx="33" ry="64" fill="#72FB07"/>
<ellipse cx="1306" cy="158" rx="33" ry="64" fill="#72FB07"/>
<ellipse cx="1306" cy="158" rx="33" ry="64" fill="#72FB07"/>
<ellipse cx="1306" cy="158" rx="33" ry="64" fill="#72FB07"/>
<ellipse cx="1349" cy="158" rx="33" ry="64" fill="#72FB07"/>
<ellipse cx="1349" cy="158" rx="33" ry="64" fill="#72FB07"/>
<ellipse cx="1349" cy="158" rx="33" ry="64" fill="#72FB07"/>
<ellipse cx="1397" cy="158" rx="33" ry="64" fill="#72FB07"/>
<ellipse cx="1397" cy="158" rx="33" ry="64" fill="#72FB07"/>
<ellipse cx="1397" cy="158" rx="33" ry="64" fill="#72FB07"/>
<ellipse cx="1440" cy="158" rx="33" ry="64" fill="#72FB07"/>
<ellipse cx="1440" cy="158" rx="33" ry="64" fill="#72FB07"/>
<ellipse cx="1440" cy="158" rx="33" ry="64" fill="#72FB07"/>
<ellipse cx="402" cy="80" rx="33" ry="64" fill="#72FB07"/>
<ellipse cx="402" cy="80" rx="33" ry="64" fill="#72FB07"/>
<ellipse cx="402" cy="80" rx="33" ry="64" fill="#72FB07"/>
<ellipse cx="450" cy="80" rx="33" ry="64" fill="#72FB07"/>
<ellipse cx="450" cy="80" rx="33" ry="64" fill="#72FB07"/>
<ellipse cx="450" cy="80" rx="33" ry="64" fill="#72FB07"/>
<ellipse cx="402" cy="80" rx="33" ry="64" fill="#72FB07"/>
<ellipse cx="402" cy="80" rx="33" ry="64" fill="#72FB07"/>
<ellipse cx="402" cy="80" rx="33" ry="64" fill="#72FB07"/>
<ellipse cx="450" cy="80" rx="33" ry="64" fill="#72FB07"/>
<ellipse cx="450" cy="80" rx="33" ry="64" fill="#72FB07"/>
<ellipse cx="450" cy="80" rx="33" ry="64" fill="#72FB07"/>
<ellipse cx="1182" cy="158" rx="33" ry="64" fill="#72FB07"/>
<ellipse cx="1182" cy="158" rx="33" ry="64" fill="#72FB07"/>
<ellipse cx="1182" cy="158" rx="33" ry="64" fill="#72FB07"/>
<ellipse cx="1139" cy="248" rx="33" ry="64" fill="#72FB07"/>
<ellipse cx="1139" cy="248" rx="33" ry="64" fill="#72FB07"/>
<ellipse cx="1139" cy="248" rx="33" ry="64" fill="#72FB07"/>
<ellipse cx="1172" cy="248" rx="33" ry="64" fill="#72FB07"/>
<ellipse cx="1172" cy="248" rx="33" ry="64" fill="#72FB07"/>
<ellipse cx="1172" cy="248" rx="33" ry="64" fill="#72FB07"/>
<ellipse cx="1215" cy="248" rx="33" ry="64" fill="#72FB07"/>
<ellipse cx="1215" cy="248" rx="33" ry="64" fill="#72FB07"/>
<ellipse cx="1215" cy="248" rx="33" ry="64" fill="#72FB07"/>
<ellipse cx="1263" cy="248" rx="33" ry="64" fill="#72FB07"/>
<ellipse cx="1263" cy="248" rx="33" ry="64" fill="#72FB07"/>
<ellipse cx="1263" cy="248" rx="33" ry="64" fill="#72FB07"/>
<ellipse cx="1306" cy="248" rx="33" ry="64" fill="#72FB07"/>
<ellipse cx="1306" cy="248" rx="33" ry="64" fill="#72FB07"/>
<ellipse cx="1306" cy="248" rx="33" ry="64" fill="#72FB07"/>
<ellipse cx="1349" cy="248" rx="33" ry="64" fill="#72FB07"/>
<ellipse cx="1349" cy="248" rx="33" ry="64" fill="#72FB07"/>
<ellipse cx="1349" cy="248" rx="33" ry="64" fill="#72FB07"/>
<ellipse cx="1397" cy="248" rx="33" ry="64" fill="#72FB07"/>
<ellipse cx="1397" cy="248" rx="33" ry="64" fill="#72FB07"/>
<ellipse cx="1397" cy="248" rx="33" ry="64" fill="#72FB07"/>
<ellipse cx="1440" cy="248" rx="33" ry="64" fill="#72FB07"/>
<ellipse cx="1440" cy="248" rx="33" ry="64" fill="#72FB07"/>
<ellipse cx="1440" cy="248" rx="33" ry="64" fill="#72FB07"/>
<ellipse cx="1083" cy="299" rx="33" ry="64" fill="#72FB07"/>
<ellipse cx="1083" cy="299" rx="33" ry="64" fill="#72FB07"/>
<ellipse cx="1083" cy="299" rx="33" ry="64" fill="#72FB07"/>
<ellipse cx="1126" cy="299" rx="33" ry="64" fill="#72FB07"/>
<ellipse cx="1126" cy="299" rx="33" ry="64" fill="#72FB07"/>
<ellipse cx="1126" cy="299" rx="33" ry="64" fill="#72FB07"/>
<ellipse cx="1174" cy="299" rx="33" ry="64" fill="#72FB07"/>
<ellipse cx="1174" cy="299" rx="33" ry="64" fill="#72FB07"/>
<ellipse cx="1174" cy="299" rx="33" ry="64" fill="#72FB07"/>
<ellipse cx="1217" cy="299" rx="33" ry="64" fill="#72FB07"/>
<ellipse cx="1217" cy="299" rx="33" ry="64" fill="#72FB07"/>
<ellipse cx="1217" cy="299" rx="33" ry="64" fill="#72FB07"/>
<ellipse cx="1260" cy="299" rx="33" ry="64" fill="#72FB07"/>
<ellipse cx="1260" cy="299" rx="33" ry="64" fill="#72FB07"/>
<ellipse cx="1260" cy="299" rx="33" ry="64" fill="#72FB07"/>
<ellipse cx="1308" cy="299" rx="33" ry="64" fill="#72FB07"/>
<ellipse cx="1308" cy="299" rx="33" ry="64" fill="#72FB07"/>
<ellipse cx="1308" cy="299" rx="33" ry="64" fill="#72FB07"/>
<ellipse cx="1336" cy="299" rx="33" ry="64" fill="#72FB07"/>
<ellipse cx="1336" cy="299" rx="33" ry="64" fill="#72FB07"/>
<ellipse cx="1336" cy="299" rx="33" ry="64" fill="#72FB07"/>
<ellipse cx="1379" cy="299" rx="33" ry="64" fill="#72FB07"/>
<ellipse cx="1379" cy="299" rx="33" ry="64" fill="#72FB07"/>
<ellipse cx="1379" cy="299" rx="33" ry="64" fill="#72FB07"/>
<ellipse cx="1427" cy="299" rx="33" ry="64" fill="#72FB07"/>
<ellipse cx="1427" cy="299" rx="33" ry="64" fill="#72FB07"/>
<ellipse cx="1427" cy="299" rx="33" ry="64" fill="#72FB07"/>
<ellipse cx="1465" cy="299" rx="33" ry="64" fill="#72FB07"/>
<ellipse cx="1465" cy="299" rx="33" ry="64" fill="#72FB07"/>
<ellipse cx="1465" cy="299" rx="33" ry="64" fill="#72FB07"/>
<ellipse cx="1428" cy="49" rx="33" ry="64" fill="#72FB07"/>
<ellipse cx="1428" cy="49" rx="33" ry="64" fill="#72FB07"/>
<ellipse cx="1428" cy="49" rx="33" ry="64" fill="#72FB07"/>
<ellipse cx="1303" cy="449" rx="33" ry="64" fill="#72FB07"/>
<ellipse cx="1303" cy="449" rx="33" ry="64" fill="#72FB07"/>
<ellipse cx="1303" cy="449" rx="33" ry="64" fill="#72FB07"/>
<ellipse cx="1235" cy="424" rx="33" ry="64" fill="#72FB07"/>
<ellipse cx="1235" cy="424" rx="33" ry="64" fill="#72FB07"/>
<ellipse cx="1235" cy="424" rx="33" ry="64" fill="#72FB07"/>
<ellipse cx="1091" cy="122" rx="33" ry="64" fill="#72FB07"/>
<ellipse cx="1091" cy="122" rx="33" ry="64" fill="#72FB07"/>
<ellipse cx="1091" cy="122" rx="33" ry="64" fill="#72FB07"/>
<ellipse cx="939" cy="117" rx="33" ry="64" fill="#72FB07"/>
<ellipse cx="939" cy="117" rx="33" ry="64" fill="#72FB07"/>
<ellipse cx="939" cy="117" rx="33" ry="64" fill="#72FB07"/>
<ellipse cx="971" cy="171" rx="33" ry="64" fill="#72FB07"/>
<ellipse cx="971" cy="171" rx="33" ry="64" fill="#72FB07"/>
<ellipse cx="971" cy="171" rx="33" ry="64" fill="#72FB07"/>
<ellipse cx="997" cy="221" rx="33" ry="64" fill="#72FB07"/>
<ellipse cx="997" cy="221" rx="33" ry="64" fill="#72FB07"/>
<ellipse cx="997" cy="221" rx="33" ry="64" fill="#72FB07"/>
<g filter="url(#filter7_d_223_1622)">
<mask id="path-186-outside-1_223_1622" maskUnits="userSpaceOnUse" x="41" y="673" width="1352" height="143" fill="black">
<rect fill="white" x="41" y="673" width="1352" height="143"/>
<path d="M45.8523 810V679.091H124.858V693.153H61.7045V737.386H120.767V751.449H61.7045V795.938H125.881V810H45.8523ZM153.43 810V679.091H197.663C207.891 679.091 216.286 680.838 222.848 684.332C229.411 687.784 234.268 692.536 237.422 698.587C240.575 704.638 242.152 711.52 242.152 719.233C242.152 726.946 240.575 733.786 237.422 739.751C234.268 745.717 229.432 750.405 222.912 753.814C216.392 757.18 208.061 758.864 197.919 758.864H162.124V744.545H197.408C204.396 744.545 210.021 743.523 214.283 741.477C218.587 739.432 221.697 736.534 223.615 732.784C225.575 728.991 226.555 724.474 226.555 719.233C226.555 713.991 225.575 709.411 223.615 705.49C221.655 701.57 218.523 698.544 214.219 696.413C209.915 694.24 204.226 693.153 197.152 693.153H169.283V810H153.43ZM215.05 751.193L247.266 810H228.857L197.152 751.193H215.05ZM268.567 810V679.091H312.8C323.027 679.091 331.422 680.838 337.985 684.332C344.547 687.784 349.405 692.536 352.559 698.587C355.712 704.638 357.289 711.52 357.289 719.233C357.289 726.946 355.712 733.786 352.559 739.751C349.405 745.717 344.569 750.405 338.049 753.814C331.529 757.18 323.198 758.864 313.056 758.864H277.26V744.545H312.544C319.533 744.545 325.158 743.523 329.419 741.477C333.723 739.432 336.834 736.534 338.752 732.784C340.712 728.991 341.692 724.474 341.692 719.233C341.692 713.991 340.712 709.411 338.752 705.49C336.792 701.57 333.659 698.544 329.355 696.413C325.051 694.24 319.363 693.153 312.289 693.153H284.419V810H268.567ZM330.186 751.193L362.402 810H343.993L312.289 751.193H330.186ZM494.158 744.545C494.158 758.352 491.665 770.284 486.68 780.341C481.694 790.398 474.854 798.153 466.161 803.608C457.468 809.062 447.539 811.79 436.374 811.79C425.21 811.79 415.281 809.062 406.587 803.608C397.894 798.153 391.055 790.398 386.069 780.341C381.083 770.284 378.59 758.352 378.59 744.545C378.59 730.739 381.083 718.807 386.069 708.75C391.055 698.693 397.894 690.938 406.587 685.483C415.281 680.028 425.21 677.301 436.374 677.301C447.539 677.301 457.468 680.028 466.161 685.483C474.854 690.938 481.694 698.693 486.68 708.75C491.665 718.807 494.158 730.739 494.158 744.545ZM478.817 744.545C478.817 733.21 476.921 723.643 473.129 715.845C469.379 708.047 464.286 702.145 457.852 698.139C451.46 694.134 444.3 692.131 436.374 692.131C428.448 692.131 421.268 694.134 414.833 698.139C408.441 702.145 403.349 708.047 399.556 715.845C395.806 723.643 393.931 733.21 393.931 744.545C393.931 755.881 395.806 765.447 399.556 773.246C403.349 781.044 408.441 786.946 414.833 790.952C421.268 794.957 428.448 796.96 436.374 796.96C444.3 796.96 451.46 794.957 457.852 790.952C464.286 786.946 469.379 781.044 473.129 773.246C476.921 765.447 478.817 755.881 478.817 744.545ZM520.813 810V679.091H565.046C575.273 679.091 583.668 680.838 590.231 684.332C596.793 687.784 601.651 692.536 604.805 698.587C607.958 704.638 609.535 711.52 609.535 719.233C609.535 726.946 607.958 733.786 604.805 739.751C601.651 745.717 596.815 750.405 590.295 753.814C583.775 757.18 575.444 758.864 565.302 758.864H529.506V744.545H564.79C571.779 744.545 577.404 743.523 581.665 741.477C585.969 739.432 589.08 736.534 590.998 732.784C592.958 728.991 593.938 724.474 593.938 719.233C593.938 713.991 592.958 709.411 590.998 705.49C589.038 701.57 585.906 698.544 581.602 696.413C577.298 694.24 571.609 693.153 564.535 693.153H536.665V810H520.813ZM582.433 751.193L614.648 810H596.239L564.535 751.193H582.433ZM739.757 679.091V810H724.416L653.081 707.216H651.802V810H635.95V679.091H651.291L722.882 782.131H724.16V679.091H739.757ZM881.932 744.545C881.932 758.352 879.439 770.284 874.453 780.341C869.467 790.398 862.628 798.153 853.935 803.608C845.241 809.062 835.313 811.79 824.148 811.79C812.983 811.79 803.054 809.062 794.361 803.608C785.668 798.153 778.828 790.398 773.842 780.341C768.857 770.284 766.364 758.352 766.364 744.545C766.364 730.739 768.857 718.807 773.842 708.75C778.828 698.693 785.668 690.938 794.361 685.483C803.054 680.028 812.983 677.301 824.148 677.301C835.313 677.301 845.241 680.028 853.935 685.483C862.628 690.938 869.467 698.693 874.453 708.75C879.439 718.807 881.932 730.739 881.932 744.545ZM866.591 744.545C866.591 733.21 864.695 723.643 860.902 715.845C857.152 708.047 852.06 702.145 845.625 698.139C839.233 694.134 832.074 692.131 824.148 692.131C816.222 692.131 809.041 694.134 802.607 698.139C796.214 702.145 791.122 708.047 787.33 715.845C783.58 723.643 781.705 733.21 781.705 744.545C781.705 755.881 783.58 765.447 787.33 773.246C791.122 781.044 796.214 786.946 802.607 790.952C809.041 794.957 816.222 796.96 824.148 796.96C832.074 796.96 839.233 794.957 845.625 790.952C852.06 786.946 857.152 781.044 860.902 773.246C864.695 765.447 866.591 755.881 866.591 744.545ZM895.978 693.153V679.091H994.16V693.153H952.995V810H937.143V693.153H895.978ZM1052.39 679.091H1068.24V772.67C1068.24 781.023 1066.71 788.118 1063.64 793.956C1060.57 799.794 1056.25 804.226 1050.67 807.251C1045.08 810.277 1038.5 811.79 1030.91 811.79C1023.76 811.79 1017.38 810.49 1011.8 807.891C1006.22 805.249 1001.83 801.499 998.635 796.641C995.439 791.783 993.841 786.009 993.841 779.318H1009.44C1009.44 783.026 1010.35 786.264 1012.19 789.034C1014.06 791.761 1016.62 793.892 1019.86 795.426C1023.09 796.96 1026.78 797.727 1030.91 797.727C1035.47 797.727 1039.35 796.768 1042.55 794.851C1045.74 792.933 1048.17 790.121 1049.83 786.413C1051.54 782.663 1052.39 778.082 1052.39 772.67V679.091ZM1210.47 744.545C1210.47 758.352 1207.97 770.284 1202.99 780.341C1198 790.398 1191.16 798.153 1182.47 803.608C1173.78 809.062 1163.85 811.79 1152.68 811.79C1141.52 811.79 1131.59 809.062 1122.9 803.608C1114.2 798.153 1107.36 790.398 1102.38 780.341C1097.39 770.284 1094.9 758.352 1094.9 744.545C1094.9 730.739 1097.39 718.807 1102.38 708.75C1107.36 698.693 1114.2 690.938 1122.9 685.483C1131.59 680.028 1141.52 677.301 1152.68 677.301C1163.85 677.301 1173.78 680.028 1182.47 685.483C1191.16 690.938 1198 698.693 1202.99 708.75C1207.97 718.807 1210.47 730.739 1210.47 744.545ZM1195.13 744.545C1195.13 733.21 1193.23 723.643 1189.44 715.845C1185.69 708.047 1180.59 702.145 1174.16 698.139C1167.77 694.134 1160.61 692.131 1152.68 692.131C1144.76 692.131 1137.58 694.134 1131.14 698.139C1124.75 702.145 1119.66 708.047 1115.86 715.845C1112.11 723.643 1110.24 733.21 1110.24 744.545C1110.24 755.881 1112.11 765.447 1115.86 773.246C1119.66 781.044 1124.75 786.946 1131.14 790.952C1137.58 794.957 1144.76 796.96 1152.68 796.96C1160.61 796.96 1167.77 794.957 1174.16 790.952C1180.59 786.946 1185.69 781.044 1189.44 773.246C1193.23 765.447 1195.13 755.881 1195.13 744.545ZM1252.97 679.091V810H1237.12V679.091H1252.97ZM1388.57 679.091V810H1373.22L1301.89 707.216H1300.61V810H1284.76V679.091H1300.1L1371.69 782.131H1372.97V679.091H1388.57Z"/>
</mask>
<path d="M45.8523 810V679.091H124.858V693.153H61.7045V737.386H120.767V751.449H61.7045V795.938H125.881V810H45.8523ZM153.43 810V679.091H197.663C207.891 679.091 216.286 680.838 222.848 684.332C229.411 687.784 234.268 692.536 237.422 698.587C240.575 704.638 242.152 711.52 242.152 719.233C242.152 726.946 240.575 733.786 237.422 739.751C234.268 745.717 229.432 750.405 222.912 753.814C216.392 757.18 208.061 758.864 197.919 758.864H162.124V744.545H197.408C204.396 744.545 210.021 743.523 214.283 741.477C218.587 739.432 221.697 736.534 223.615 732.784C225.575 728.991 226.555 724.474 226.555 719.233C226.555 713.991 225.575 709.411 223.615 705.49C221.655 701.57 218.523 698.544 214.219 696.413C209.915 694.24 204.226 693.153 197.152 693.153H169.283V810H153.43ZM215.05 751.193L247.266 810H228.857L197.152 751.193H215.05ZM268.567 810V679.091H312.8C323.027 679.091 331.422 680.838 337.985 684.332C344.547 687.784 349.405 692.536 352.559 698.587C355.712 704.638 357.289 711.52 357.289 719.233C357.289 726.946 355.712 733.786 352.559 739.751C349.405 745.717 344.569 750.405 338.049 753.814C331.529 757.18 323.198 758.864 313.056 758.864H277.26V744.545H312.544C319.533 744.545 325.158 743.523 329.419 741.477C333.723 739.432 336.834 736.534 338.752 732.784C340.712 728.991 341.692 724.474 341.692 719.233C341.692 713.991 340.712 709.411 338.752 705.49C336.792 701.57 333.659 698.544 329.355 696.413C325.051 694.24 319.363 693.153 312.289 693.153H284.419V810H268.567ZM330.186 751.193L362.402 810H343.993L312.289 751.193H330.186ZM494.158 744.545C494.158 758.352 491.665 770.284 486.68 780.341C481.694 790.398 474.854 798.153 466.161 803.608C457.468 809.062 447.539 811.79 436.374 811.79C425.21 811.79 415.281 809.062 406.587 803.608C397.894 798.153 391.055 790.398 386.069 780.341C381.083 770.284 378.59 758.352 378.59 744.545C378.59 730.739 381.083 718.807 386.069 708.75C391.055 698.693 397.894 690.938 406.587 685.483C415.281 680.028 425.21 677.301 436.374 677.301C447.539 677.301 457.468 680.028 466.161 685.483C474.854 690.938 481.694 698.693 486.68 708.75C491.665 718.807 494.158 730.739 494.158 744.545ZM478.817 744.545C478.817 733.21 476.921 723.643 473.129 715.845C469.379 708.047 464.286 702.145 457.852 698.139C451.46 694.134 444.3 692.131 436.374 692.131C428.448 692.131 421.268 694.134 414.833 698.139C408.441 702.145 403.349 708.047 399.556 715.845C395.806 723.643 393.931 733.21 393.931 744.545C393.931 755.881 395.806 765.447 399.556 773.246C403.349 781.044 408.441 786.946 414.833 790.952C421.268 794.957 428.448 796.96 436.374 796.96C444.3 796.96 451.46 794.957 457.852 790.952C464.286 786.946 469.379 781.044 473.129 773.246C476.921 765.447 478.817 755.881 478.817 744.545ZM520.813 810V679.091H565.046C575.273 679.091 583.668 680.838 590.231 684.332C596.793 687.784 601.651 692.536 604.805 698.587C607.958 704.638 609.535 711.52 609.535 719.233C609.535 726.946 607.958 733.786 604.805 739.751C601.651 745.717 596.815 750.405 590.295 753.814C583.775 757.18 575.444 758.864 565.302 758.864H529.506V744.545H564.79C571.779 744.545 577.404 743.523 581.665 741.477C585.969 739.432 589.08 736.534 590.998 732.784C592.958 728.991 593.938 724.474 593.938 719.233C593.938 713.991 592.958 709.411 590.998 705.49C589.038 701.57 585.906 698.544 581.602 696.413C577.298 694.24 571.609 693.153 564.535 693.153H536.665V810H520.813ZM582.433 751.193L614.648 810H596.239L564.535 751.193H582.433ZM739.757 679.091V810H724.416L653.081 707.216H651.802V810H635.95V679.091H651.291L722.882 782.131H724.16V679.091H739.757ZM881.932 744.545C881.932 758.352 879.439 770.284 874.453 780.341C869.467 790.398 862.628 798.153 853.935 803.608C845.241 809.062 835.313 811.79 824.148 811.79C812.983 811.79 803.054 809.062 794.361 803.608C785.668 798.153 778.828 790.398 773.842 780.341C768.857 770.284 766.364 758.352 766.364 744.545C766.364 730.739 768.857 718.807 773.842 708.75C778.828 698.693 785.668 690.938 794.361 685.483C803.054 680.028 812.983 677.301 824.148 677.301C835.313 677.301 845.241 680.028 853.935 685.483C862.628 690.938 869.467 698.693 874.453 708.75C879.439 718.807 881.932 730.739 881.932 744.545ZM866.591 744.545C866.591 733.21 864.695 723.643 860.902 715.845C857.152 708.047 852.06 702.145 845.625 698.139C839.233 694.134 832.074 692.131 824.148 692.131C816.222 692.131 809.041 694.134 802.607 698.139C796.214 702.145 791.122 708.047 787.33 715.845C783.58 723.643 781.705 733.21 781.705 744.545C781.705 755.881 783.58 765.447 787.33 773.246C791.122 781.044 796.214 786.946 802.607 790.952C809.041 794.957 816.222 796.96 824.148 796.96C832.074 796.96 839.233 794.957 845.625 790.952C852.06 786.946 857.152 781.044 860.902 773.246C864.695 765.447 866.591 755.881 866.591 744.545ZM895.978 693.153V679.091H994.16V693.153H952.995V810H937.143V693.153H895.978ZM1052.39 679.091H1068.24V772.67C1068.24 781.023 1066.71 788.118 1063.64 793.956C1060.57 799.794 1056.25 804.226 1050.67 807.251C1045.08 810.277 1038.5 811.79 1030.91 811.79C1023.76 811.79 1017.38 810.49 1011.8 807.891C1006.22 805.249 1001.83 801.499 998.635 796.641C995.439 791.783 993.841 786.009 993.841 779.318H1009.44C1009.44 783.026 1010.35 786.264 1012.19 789.034C1014.06 791.761 1016.62 793.892 1019.86 795.426C1023.09 796.96 1026.78 797.727 1030.91 797.727C1035.47 797.727 1039.35 796.768 1042.55 794.851C1045.74 792.933 1048.17 790.121 1049.83 786.413C1051.54 782.663 1052.39 778.082 1052.39 772.67V679.091ZM1210.47 744.545C1210.47 758.352 1207.97 770.284 1202.99 780.341C1198 790.398 1191.16 798.153 1182.47 803.608C1173.78 809.062 1163.85 811.79 1152.68 811.79C1141.52 811.79 1131.59 809.062 1122.9 803.608C1114.2 798.153 1107.36 790.398 1102.38 780.341C1097.39 770.284 1094.9 758.352 1094.9 744.545C1094.9 730.739 1097.39 718.807 1102.38 708.75C1107.36 698.693 1114.2 690.938 1122.9 685.483C1131.59 680.028 1141.52 677.301 1152.68 677.301C1163.85 677.301 1173.78 680.028 1182.47 685.483C1191.16 690.938 1198 698.693 1202.99 708.75C1207.97 718.807 1210.47 730.739 1210.47 744.545ZM1195.13 744.545C1195.13 733.21 1193.23 723.643 1189.44 715.845C1185.69 708.047 1180.59 702.145 1174.16 698.139C1167.77 694.134 1160.61 692.131 1152.68 692.131C1144.76 692.131 1137.58 694.134 1131.14 698.139C1124.75 702.145 1119.66 708.047 1115.86 715.845C1112.11 723.643 1110.24 733.21 1110.24 744.545C1110.24 755.881 1112.11 765.447 1115.86 773.246C1119.66 781.044 1124.75 786.946 1131.14 790.952C1137.58 794.957 1144.76 796.96 1152.68 796.96C1160.61 796.96 1167.77 794.957 1174.16 790.952C1180.59 786.946 1185.69 781.044 1189.44 773.246C1193.23 765.447 1195.13 755.881 1195.13 744.545ZM1252.97 679.091V810H1237.12V679.091H1252.97ZM1388.57 679.091V810H1373.22L1301.89 707.216H1300.61V810H1284.76V679.091H1300.1L1371.69 782.131H1372.97V679.091H1388.57Z" fill="#432D0D"/>
<path d="M45.8523 810H41.8523V814H45.8523V810ZM45.8523 679.091V675.091H41.8523V679.091H45.8523ZM124.858 679.091H128.858V675.091H124.858V679.091ZM124.858 693.153V697.153H128.858V693.153H124.858ZM61.7045 693.153V689.153H57.7045V693.153H61.7045ZM61.7045 737.386H57.7045V741.386H61.7045V737.386ZM120.767 737.386H124.767V733.386H120.767V737.386ZM120.767 751.449V755.449H124.767V751.449H120.767ZM61.7045 751.449V747.449H57.7045V751.449H61.7045ZM61.7045 795.938H57.7045V799.938H61.7045V795.938ZM125.881 795.938H129.881V791.938H125.881V795.938ZM125.881 810V814H129.881V810H125.881ZM49.8523 810V679.091H41.8523V810H49.8523ZM45.8523 683.091H124.858V675.091H45.8523V683.091ZM120.858 679.091V693.153H128.858V679.091H120.858ZM124.858 689.153H61.7045V697.153H124.858V689.153ZM57.7045 693.153V737.386H65.7045V693.153H57.7045ZM61.7045 741.386H120.767V733.386H61.7045V741.386ZM116.767 737.386V751.449H124.767V737.386H116.767ZM120.767 747.449H61.7045V755.449H120.767V747.449ZM57.7045 751.449V795.938H65.7045V751.449H57.7045ZM61.7045 799.938H125.881V791.938H61.7045V799.938ZM121.881 795.938V810H129.881V795.938H121.881ZM125.881 806H45.8523V814H125.881V806ZM153.43 810H149.43V814H153.43V810ZM153.43 679.091V675.091H149.43V679.091H153.43ZM222.848 684.332L220.968 687.863L220.977 687.868L220.986 687.873L222.848 684.332ZM237.422 698.587L233.875 700.435L237.422 698.587ZM237.422 739.751L233.885 737.882L237.422 739.751ZM222.912 753.814L224.747 757.368L224.756 757.363L224.765 757.359L222.912 753.814ZM162.124 758.864H158.124V762.864H162.124V758.864ZM162.124 744.545V740.545H158.124V744.545H162.124ZM214.283 741.477L212.566 737.865L212.559 737.868L212.552 737.871L214.283 741.477ZM223.615 732.784L220.062 730.947L220.058 730.955L220.054 730.963L223.615 732.784ZM214.219 696.413L212.416 699.984L212.43 699.991L212.444 699.998L214.219 696.413ZM169.283 693.153V689.153H165.283V693.153H169.283ZM169.283 810V814H173.283V810H169.283ZM215.05 751.193L218.558 749.271L217.419 747.193H215.05V751.193ZM247.266 810V814H254.018L250.774 808.078L247.266 810ZM228.857 810L225.336 811.898L226.469 814H228.857V810ZM197.152 751.193V747.193H190.451L193.631 753.091L197.152 751.193ZM157.43 810V679.091H149.43V810H157.43ZM153.43 683.091H197.663V675.091H153.43V683.091ZM197.663 683.091C207.469 683.091 215.16 684.771 220.968 687.863L224.728 680.802C217.411 676.905 208.312 675.091 197.663 675.091V683.091ZM220.986 687.873C226.893 690.98 231.13 695.169 233.875 700.435L240.969 696.738C237.406 689.902 231.928 684.589 224.71 680.792L220.986 687.873ZM233.875 700.435C236.694 705.845 238.152 712.079 238.152 719.233H246.152C246.152 710.961 244.457 703.431 240.969 696.738L233.875 700.435ZM238.152 719.233C238.152 726.388 236.693 732.57 233.885 737.882L240.958 741.621C244.457 735.001 246.152 727.504 246.152 719.233H238.152ZM233.885 737.882C231.145 743.067 226.929 747.2 221.059 750.269L224.765 757.359C231.935 753.61 237.392 748.367 240.958 741.621L233.885 737.882ZM221.077 750.26C215.299 753.243 207.653 754.864 197.919 754.864V762.864C208.469 762.864 217.485 761.118 224.747 757.368L221.077 750.26ZM197.919 754.864H162.124V762.864H197.919V754.864ZM166.124 758.864V744.545H158.124V758.864H166.124ZM162.124 748.545H197.408V740.545H162.124V748.545ZM197.408 748.545C204.732 748.545 211.016 747.482 216.014 745.083L212.552 737.871C209.026 739.563 204.06 740.545 197.408 740.545V748.545ZM216 745.09C220.989 742.719 224.806 739.241 227.176 734.605L220.054 730.963C218.589 733.827 216.184 736.145 212.566 737.865L216 745.09ZM227.168 734.621C229.482 730.145 230.555 724.97 230.555 719.233H222.555C222.555 723.979 221.669 727.838 220.062 730.947L227.168 734.621ZM230.555 719.233C230.555 713.491 229.48 708.276 227.193 703.701L220.037 707.279C221.671 710.545 222.555 714.492 222.555 719.233H230.555ZM227.193 703.701C224.805 698.926 220.999 695.307 215.993 692.829L212.444 699.998C216.047 701.782 218.504 704.213 220.037 707.279L227.193 703.701ZM216.022 692.843C210.959 690.286 204.582 689.153 197.152 689.153V697.153C203.87 697.153 208.87 698.194 212.416 699.984L216.022 692.843ZM197.152 689.153H169.283V697.153H197.152V689.153ZM165.283 693.153V810H173.283V693.153H165.283ZM169.283 806H153.43V814H169.283V806ZM211.542 753.115L243.758 811.922L250.774 808.078L218.558 749.271L211.542 753.115ZM247.266 806H228.857V814H247.266V806ZM232.377 808.102L200.673 749.295L193.631 753.091L225.336 811.898L232.377 808.102ZM197.152 755.193H215.05V747.193H197.152V755.193ZM268.567 810H264.567V814H268.567V810ZM268.567 679.091V675.091H264.567V679.091H268.567ZM337.985 684.332L336.105 687.863L336.114 687.868L336.123 687.873L337.985 684.332ZM352.559 698.587L349.011 700.435L352.559 698.587ZM352.559 739.751L349.022 737.882L352.559 739.751ZM338.049 753.814L339.884 757.368L339.893 757.363L339.902 757.359L338.049 753.814ZM277.26 758.864H273.26V762.864H277.26V758.864ZM277.26 744.545V740.545H273.26V744.545H277.26ZM329.419 741.477L327.702 737.865L327.695 737.868L327.688 737.871L329.419 741.477ZM338.752 732.784L335.198 730.947L335.194 730.955L335.19 730.963L338.752 732.784ZM329.355 696.413L327.552 699.984L327.567 699.991L327.581 699.998L329.355 696.413ZM284.419 693.153V689.153H280.419V693.153H284.419ZM284.419 810V814H288.419V810H284.419ZM330.186 751.193L333.695 749.271L332.556 747.193H330.186V751.193ZM362.402 810V814H369.155L365.91 808.078L362.402 810ZM343.993 810L340.472 811.898L341.605 814H343.993V810ZM312.289 751.193V747.193H305.588L308.768 753.091L312.289 751.193ZM272.567 810V679.091H264.567V810H272.567ZM268.567 683.091H312.8V675.091H268.567V683.091ZM312.8 683.091C322.606 683.091 330.297 684.771 336.105 687.863L339.865 680.802C332.547 676.905 323.449 675.091 312.8 675.091V683.091ZM336.123 687.873C342.03 690.98 346.267 695.169 349.011 700.435L356.106 696.738C352.543 689.902 347.065 684.589 339.847 680.792L336.123 687.873ZM349.011 700.435C351.83 705.845 353.289 712.079 353.289 719.233H361.289C361.289 710.961 359.594 703.431 356.106 696.738L349.011 700.435ZM353.289 719.233C353.289 726.388 351.83 732.57 349.022 737.882L356.095 741.621C359.594 735.001 361.289 727.504 361.289 719.233H353.289ZM349.022 737.882C346.282 743.067 342.065 747.2 336.195 750.269L339.902 757.359C347.072 753.61 352.529 748.367 356.095 741.621L349.022 737.882ZM336.214 750.26C330.436 753.243 322.79 754.864 313.056 754.864V762.864C323.605 762.864 332.622 761.118 339.884 757.368L336.214 750.26ZM313.056 754.864H277.26V762.864H313.056V754.864ZM281.26 758.864V744.545H273.26V758.864H281.26ZM277.26 748.545H312.544V740.545H277.26V748.545ZM312.544 748.545C319.869 748.545 326.153 747.482 331.15 745.083L327.688 737.871C324.163 739.563 319.197 740.545 312.544 740.545V748.545ZM331.136 745.09C336.126 742.719 339.943 739.241 342.313 734.605L335.19 730.963C333.726 733.827 331.321 736.145 327.702 737.865L331.136 745.09ZM342.305 734.621C344.618 730.145 345.692 724.97 345.692 719.233H337.692C337.692 723.979 336.806 727.838 335.198 730.947L342.305 734.621ZM345.692 719.233C345.692 713.491 344.617 708.276 342.329 703.701L335.174 707.279C336.807 710.545 337.692 714.492 337.692 719.233H345.692ZM342.329 703.701C339.942 698.926 336.136 695.307 331.13 692.829L327.581 699.998C331.183 701.782 333.641 704.213 335.174 707.279L342.329 703.701ZM331.158 692.843C326.096 690.286 319.719 689.153 312.289 689.153V697.153C319.007 697.153 324.007 698.194 327.552 699.984L331.158 692.843ZM312.289 689.153H284.419V697.153H312.289V689.153ZM280.419 693.153V810H288.419V693.153H280.419ZM284.419 806H268.567V814H284.419V806ZM326.678 753.115L358.894 811.922L365.91 808.078L333.695 749.271L326.678 753.115ZM362.402 806H343.993V814H362.402V806ZM347.514 808.102L315.81 749.295L308.768 753.091L340.472 811.898L347.514 808.102ZM312.289 755.193H330.186V747.193H312.289V755.193ZM486.68 780.341L483.096 778.564L486.68 780.341ZM466.161 803.608L468.287 806.996L466.161 803.608ZM406.587 803.608L404.461 806.996L406.587 803.608ZM386.069 780.341L389.653 778.564L386.069 780.341ZM466.161 685.483L468.287 682.095L466.161 685.483ZM486.68 708.75L483.096 710.527L486.68 708.75ZM473.129 715.845L469.524 717.579L469.528 717.587L469.531 717.595L473.129 715.845ZM457.852 698.139L455.728 701.529L455.738 701.535L457.852 698.139ZM414.833 698.139L412.719 694.743L412.709 694.75L414.833 698.139ZM399.556 715.845L395.959 714.096L395.955 714.104L395.951 714.112L399.556 715.845ZM399.556 773.246L395.951 774.979L395.955 774.987L395.959 774.995L399.556 773.246ZM414.833 790.952L412.709 794.341L412.719 794.347L414.833 790.952ZM457.852 790.952L455.738 787.556L455.728 787.562L457.852 790.952ZM473.129 773.246L469.531 771.496L469.528 771.504L469.524 771.512L473.129 773.246ZM490.158 744.545C490.158 757.875 487.752 769.172 483.096 778.564L490.263 782.118C495.579 771.396 498.158 758.83 498.158 744.545H490.158ZM483.096 778.564C478.406 788.024 472.045 795.194 464.035 800.22L468.287 806.996C477.664 801.113 484.982 792.772 490.263 782.118L483.096 778.564ZM464.035 800.22C456.035 805.24 446.856 807.79 436.374 807.79V815.79C448.223 815.79 458.901 812.885 468.287 806.996L464.035 800.22ZM436.374 807.79C425.893 807.79 416.714 805.24 408.713 800.22L404.461 806.996C413.847 812.885 424.526 815.79 436.374 815.79V807.79ZM408.713 800.22C400.703 795.194 394.342 788.024 389.653 778.564L382.485 782.118C387.767 792.772 395.085 801.113 404.461 806.996L408.713 800.22ZM389.653 778.564C384.996 769.172 382.59 757.875 382.59 744.545H374.59C374.59 758.83 377.17 771.396 382.485 782.118L389.653 778.564ZM382.59 744.545C382.59 731.216 384.996 719.919 389.653 710.527L382.485 706.973C377.17 717.695 374.59 730.261 374.59 744.545H382.59ZM389.653 710.527C394.342 701.067 400.703 693.897 408.713 688.871L404.461 682.095C395.085 687.978 387.767 696.319 382.485 706.973L389.653 710.527ZM408.713 688.871C416.714 683.851 425.893 681.301 436.374 681.301V673.301C424.526 673.301 413.847 676.205 404.461 682.095L408.713 688.871ZM436.374 681.301C446.856 681.301 456.035 683.851 464.035 688.871L468.287 682.095C458.901 676.205 448.223 673.301 436.374 673.301V681.301ZM464.035 688.871C472.045 693.897 478.406 701.067 483.096 710.527L490.263 706.973C484.982 696.319 477.664 687.978 468.287 682.095L464.035 688.871ZM483.096 710.527C487.752 719.919 490.158 731.216 490.158 744.545H498.158C498.158 730.261 495.579 717.695 490.263 706.973L483.096 710.527ZM482.817 744.545C482.817 732.783 480.852 722.58 476.726 714.096L469.531 717.595C472.99 724.707 474.817 733.637 474.817 744.545H482.817ZM476.733 714.112C472.702 705.728 467.132 699.205 459.965 694.743L455.738 701.535C461.44 705.085 466.055 710.365 469.524 717.579L476.733 714.112ZM459.976 694.75C452.914 690.324 445.012 688.131 436.374 688.131V696.131C443.589 696.131 450.005 697.943 455.728 701.529L459.976 694.75ZM436.374 688.131C427.737 688.131 419.818 690.324 412.719 694.743L416.947 701.535C422.718 697.943 429.16 696.131 436.374 696.131V688.131ZM412.709 694.75C405.592 699.21 400.029 705.727 395.959 714.096L403.153 717.595C406.668 710.367 411.291 705.08 416.957 701.529L412.709 694.75ZM395.951 714.112C391.874 722.591 389.931 732.789 389.931 744.545H397.931C397.931 733.632 399.739 724.695 403.161 717.579L395.951 714.112ZM389.931 744.545C389.931 756.302 391.874 766.499 395.951 774.979L403.161 771.512C399.739 764.395 397.931 755.459 397.931 744.545H389.931ZM395.959 774.995C400.029 783.364 405.592 789.881 412.709 794.341L416.957 787.562C411.291 784.011 406.668 778.724 403.153 771.496L395.959 774.995ZM412.719 794.347C419.818 798.767 427.737 800.96 436.374 800.96V792.96C429.16 792.96 422.718 791.148 416.947 787.556L412.719 794.347ZM436.374 800.96C445.012 800.96 452.914 798.766 459.976 794.341L455.728 787.562C450.005 791.148 443.589 792.96 436.374 792.96V800.96ZM459.965 794.347C467.132 789.886 472.702 783.363 476.733 774.979L469.524 771.512C466.055 778.726 461.44 784.006 455.738 787.556L459.965 794.347ZM476.726 774.995C480.852 766.511 482.817 756.308 482.817 744.545H474.817C474.817 755.453 472.99 764.384 469.531 771.496L476.726 774.995ZM520.813 810H516.813V814H520.813V810ZM520.813 679.091V675.091H516.813V679.091H520.813ZM590.231 684.332L588.351 687.863L588.36 687.868L588.369 687.873L590.231 684.332ZM604.805 698.587L601.257 700.435L604.805 698.587ZM604.805 739.751L601.268 737.882L604.805 739.751ZM590.295 753.814L592.13 757.368L592.139 757.363L592.148 757.359L590.295 753.814ZM529.506 758.864H525.506V762.864H529.506V758.864ZM529.506 744.545V740.545H525.506V744.545H529.506ZM581.665 741.477L579.949 737.865L579.942 737.868L579.935 737.871L581.665 741.477ZM590.998 732.784L587.444 730.947L587.44 730.955L587.437 730.963L590.998 732.784ZM581.602 696.413L579.799 699.984L579.813 699.991L579.827 699.998L581.602 696.413ZM536.665 693.153V689.153H532.665V693.153H536.665ZM536.665 810V814H540.665V810H536.665ZM582.433 751.193L585.941 749.271L584.802 747.193H582.433V751.193ZM614.648 810V814H621.401L618.156 808.078L614.648 810ZM596.239 810L592.718 811.898L593.852 814H596.239V810ZM564.535 751.193V747.193H557.834L561.014 753.091L564.535 751.193ZM524.813 810V679.091H516.813V810H524.813ZM520.813 683.091H565.046V675.091H520.813V683.091ZM565.046 683.091C574.852 683.091 582.543 684.771 588.351 687.863L592.111 680.802C584.793 676.905 575.695 675.091 565.046 675.091V683.091ZM588.369 687.873C594.276 690.98 598.513 695.169 601.257 700.435L608.352 696.738C604.789 689.902 599.311 684.589 592.093 680.792L588.369 687.873ZM601.257 700.435C604.077 705.845 605.535 712.079 605.535 719.233H613.535C613.535 710.961 611.84 703.431 608.352 696.738L601.257 700.435ZM605.535 719.233C605.535 726.388 604.076 732.57 601.268 737.882L608.341 741.621C611.84 735.001 613.535 727.504 613.535 719.233H605.535ZM601.268 737.882C598.528 743.067 594.311 747.2 588.441 750.269L592.148 757.359C599.318 753.61 604.775 748.367 608.341 741.621L601.268 737.882ZM588.46 750.26C582.682 753.243 575.036 754.864 565.302 754.864V762.864C575.852 762.864 584.868 761.118 592.13 757.368L588.46 750.26ZM565.302 754.864H529.506V762.864H565.302V754.864ZM533.506 758.864V744.545H525.506V758.864H533.506ZM529.506 748.545H564.79V740.545H529.506V748.545ZM564.79 748.545C572.115 748.545 578.399 747.482 583.396 745.083L579.935 737.871C576.409 739.563 571.443 740.545 564.79 740.545V748.545ZM583.382 745.09C588.372 742.719 592.189 739.241 594.559 734.605L587.437 730.963C585.972 733.827 583.567 736.145 579.949 737.865L583.382 745.09ZM594.551 734.621C596.864 730.145 597.938 724.97 597.938 719.233H589.938C589.938 723.979 589.052 727.838 587.444 730.947L594.551 734.621ZM597.938 719.233C597.938 713.491 596.863 708.276 594.576 703.701L587.42 707.279C589.053 710.545 589.938 714.492 589.938 719.233H597.938ZM594.576 703.701C592.188 698.926 588.382 695.307 583.376 692.829L579.827 699.998C583.429 701.782 585.887 704.213 587.42 707.279L594.576 703.701ZM583.405 692.843C578.342 690.286 571.965 689.153 564.535 689.153V697.153C571.253 697.153 576.253 698.194 579.799 699.984L583.405 692.843ZM564.535 689.153H536.665V697.153H564.535V689.153ZM532.665 693.153V810H540.665V693.153H532.665ZM536.665 806H520.813V814H536.665V806ZM578.924 753.115L611.14 811.922L618.156 808.078L585.941 749.271L578.924 753.115ZM614.648 806H596.239V814H614.648V806ZM599.76 808.102L568.056 749.295L561.014 753.091L592.718 811.898L599.76 808.102ZM564.535 755.193H582.433V747.193H564.535V755.193ZM739.757 679.091H743.757V675.091H739.757V679.091ZM739.757 810V814H743.757V810H739.757ZM724.416 810L721.13 812.281L722.323 814H724.416V810ZM653.081 707.216L656.367 704.935L655.173 703.216H653.081V707.216ZM651.802 707.216V703.216H647.802V707.216H651.802ZM651.802 810V814H655.802V810H651.802ZM635.95 810H631.95V814H635.95V810ZM635.95 679.091V675.091H631.95V679.091H635.95ZM651.291 679.091L654.576 676.809L653.382 675.091H651.291V679.091ZM722.882 782.131L719.597 784.413L720.79 786.131H722.882V782.131ZM724.16 782.131V786.131H728.16V782.131H724.16ZM724.16 679.091V675.091H720.16V679.091H724.16ZM735.757 679.091V810H743.757V679.091H735.757ZM739.757 806H724.416V814H739.757V806ZM727.702 807.719L656.367 704.935L649.794 709.497L721.13 812.281L727.702 807.719ZM653.081 703.216H651.802V711.216H653.081V703.216ZM647.802 707.216V810H655.802V707.216H647.802ZM651.802 806H635.95V814H651.802V806ZM639.95 810V679.091H631.95V810H639.95ZM635.95 683.091H651.291V675.091H635.95V683.091ZM648.006 681.373L719.597 784.413L726.167 779.848L654.576 676.809L648.006 681.373ZM722.882 786.131H724.16V778.131H722.882V786.131ZM728.16 782.131V679.091H720.16V782.131H728.16ZM724.16 683.091H739.757V675.091H724.16V683.091ZM874.453 780.341L870.869 778.564L874.453 780.341ZM853.935 803.608L856.061 806.996L853.935 803.608ZM794.361 803.608L792.235 806.996L794.361 803.608ZM773.842 780.341L777.426 778.564L773.842 780.341ZM853.935 685.483L856.061 682.095L853.935 685.483ZM874.453 708.75L870.869 710.527L874.453 708.75ZM860.902 715.845L857.297 717.579L857.301 717.587L857.305 717.595L860.902 715.845ZM845.625 698.139L843.501 701.529L843.511 701.535L845.625 698.139ZM802.607 698.139L800.493 694.743L800.482 694.75L802.607 698.139ZM787.33 715.845L783.732 714.096L783.729 714.104L783.725 714.112L787.33 715.845ZM787.33 773.246L783.725 774.979L783.729 774.987L783.732 774.995L787.33 773.246ZM802.607 790.952L800.482 794.341L800.493 794.347L802.607 790.952ZM845.625 790.952L843.511 787.556L843.501 787.562L845.625 790.952ZM860.902 773.246L857.305 771.496L857.301 771.504L857.297 771.512L860.902 773.246ZM877.932 744.545C877.932 757.875 875.526 769.172 870.869 778.564L878.037 782.118C883.352 771.396 885.932 758.83 885.932 744.545H877.932ZM870.869 778.564C866.18 788.024 859.819 795.194 851.809 800.22L856.061 806.996C865.437 801.113 872.755 792.772 878.037 782.118L870.869 778.564ZM851.809 800.22C843.808 805.24 834.629 807.79 824.148 807.79V815.79C835.996 815.79 846.675 812.885 856.061 806.996L851.809 800.22ZM824.148 807.79C813.666 807.79 804.487 805.24 796.487 800.22L792.235 806.996C801.621 812.885 812.299 815.79 824.148 815.79V807.79ZM796.487 800.22C788.477 795.194 782.116 788.024 777.426 778.564L770.259 782.118C775.54 792.772 782.858 801.113 792.235 806.996L796.487 800.22ZM777.426 778.564C772.77 769.172 770.364 757.875 770.364 744.545H762.364C762.364 758.83 764.943 771.396 770.259 782.118L777.426 778.564ZM770.364 744.545C770.364 731.216 772.77 719.919 777.426 710.527L770.259 706.973C764.943 717.695 762.364 730.261 762.364 744.545H770.364ZM777.426 710.527C782.116 701.067 788.477 693.897 796.487 688.871L792.235 682.095C782.858 687.978 775.54 696.319 770.259 706.973L777.426 710.527ZM796.487 688.871C804.487 683.851 813.666 681.301 824.148 681.301V673.301C812.299 673.301 801.621 676.205 792.235 682.095L796.487 688.871ZM824.148 681.301C834.629 681.301 843.808 683.851 851.809 688.871L856.061 682.095C846.675 676.205 835.996 673.301 824.148 673.301V681.301ZM851.809 688.871C859.819 693.897 866.18 701.067 870.869 710.527L878.037 706.973C872.755 696.319 865.437 687.978 856.061 682.095L851.809 688.871ZM870.869 710.527C875.526 719.919 877.932 731.216 877.932 744.545H885.932C885.932 730.261 883.352 717.695 878.037 706.973L870.869 710.527ZM870.591 744.545C870.591 732.783 868.625 722.58 864.499 714.096L857.305 717.595C860.764 724.707 862.591 733.637 862.591 744.545H870.591ZM864.507 714.112C860.476 705.728 854.906 699.205 847.739 694.743L843.511 701.535C849.213 705.085 853.828 710.365 857.297 717.579L864.507 714.112ZM847.749 694.75C840.687 690.324 832.785 688.131 824.148 688.131V696.131C831.362 696.131 837.779 697.943 843.501 701.529L847.749 694.75ZM824.148 688.131C815.51 688.131 807.591 690.324 800.493 694.743L804.72 701.535C810.491 697.943 816.933 696.131 824.148 696.131V688.131ZM800.482 694.75C793.365 699.21 787.803 705.727 783.732 714.096L790.927 717.595C794.442 710.367 799.064 705.08 804.731 701.529L800.482 694.75ZM783.725 714.112C779.647 722.591 777.705 732.789 777.705 744.545H785.705C785.705 733.632 787.512 724.695 790.934 717.579L783.725 714.112ZM777.705 744.545C777.705 756.302 779.647 766.499 783.725 774.979L790.934 771.512C787.512 764.395 785.705 755.459 785.705 744.545H777.705ZM783.732 774.995C787.803 783.364 793.365 789.881 800.482 794.341L804.731 787.562C799.064 784.011 794.442 778.724 790.927 771.496L783.732 774.995ZM800.493 794.347C807.591 798.767 815.51 800.96 824.148 800.96V792.96C816.933 792.96 810.491 791.148 804.72 787.556L800.493 794.347ZM824.148 800.96C832.785 800.96 840.687 798.766 847.749 794.341L843.501 787.562C837.779 791.148 831.362 792.96 824.148 792.96V800.96ZM847.739 794.347C854.906 789.886 860.476 783.363 864.507 774.979L857.297 771.512C853.828 778.726 849.213 784.006 843.511 787.556L847.739 794.347ZM864.499 774.995C868.625 766.511 870.591 756.308 870.591 744.545H862.591C862.591 755.453 860.764 764.384 857.305 771.496L864.499 774.995ZM895.978 693.153H891.978V697.153H895.978V693.153ZM895.978 679.091V675.091H891.978V679.091H895.978ZM994.16 679.091H998.16V675.091H994.16V679.091ZM994.16 693.153V697.153H998.16V693.153H994.16ZM952.995 693.153V689.153H948.995V693.153H952.995ZM952.995 810V814H956.995V810H952.995ZM937.143 810H933.143V814H937.143V810ZM937.143 693.153H941.143V689.153H937.143V693.153ZM899.978 693.153V679.091H891.978V693.153H899.978ZM895.978 683.091H994.16V675.091H895.978V683.091ZM990.16 679.091V693.153H998.16V679.091H990.16ZM994.16 689.153H952.995V697.153H994.16V689.153ZM948.995 693.153V810H956.995V693.153H948.995ZM952.995 806H937.143V814H952.995V806ZM941.143 810V693.153H933.143V810H941.143ZM937.143 689.153H895.978V697.153H937.143V689.153ZM1052.39 679.091V675.091H1048.39V679.091H1052.39ZM1068.24 679.091H1072.24V675.091H1068.24V679.091ZM1063.64 793.956L1067.18 795.817L1063.64 793.956ZM1050.67 807.251L1052.57 810.768V810.768L1050.67 807.251ZM1011.8 807.891L1010.09 811.506L1010.1 811.511L1010.11 811.517L1011.8 807.891ZM998.635 796.641L995.293 798.839L998.635 796.641ZM993.841 779.318V775.318H989.841V779.318H993.841ZM1009.44 779.318H1013.44V775.318H1009.44V779.318ZM1012.19 789.034L1008.85 791.241L1008.87 791.271L1008.89 791.3L1012.19 789.034ZM1019.86 795.426L1021.57 791.811L1019.86 795.426ZM1042.55 794.851L1040.49 791.421L1042.55 794.851ZM1049.83 786.413L1046.19 784.758L1046.19 784.768L1046.18 784.777L1049.83 786.413ZM1052.39 683.091H1068.24V675.091H1052.39V683.091ZM1064.24 679.091V772.67H1072.24V679.091H1064.24ZM1064.24 772.67C1064.24 780.543 1062.8 786.964 1060.1 792.095L1067.18 795.817C1070.62 789.272 1072.24 781.502 1072.24 772.67H1064.24ZM1060.1 792.095C1057.39 797.26 1053.62 801.102 1048.76 803.735L1052.57 810.768C1058.88 807.35 1063.76 802.328 1067.18 795.817L1060.1 792.095ZM1048.76 803.735C1043.87 806.387 1037.96 807.79 1030.91 807.79V815.79C1039.04 815.79 1046.3 814.167 1052.57 810.768L1048.76 803.735ZM1030.91 807.79C1024.24 807.79 1018.46 806.581 1013.49 804.264L1010.11 811.517C1016.3 814.399 1023.27 815.79 1030.91 815.79V807.79ZM1013.51 804.275C1008.55 801.927 1004.74 798.649 1001.98 794.442L995.293 798.839C998.918 804.348 1003.89 808.571 1010.09 811.506L1013.51 804.275ZM1001.98 794.442C999.272 790.331 997.841 785.348 997.841 779.318H989.841C989.841 786.669 991.606 793.234 995.293 798.839L1001.98 794.442ZM993.841 783.318H1009.44V775.318H993.841V783.318ZM1005.44 779.318C1005.44 783.716 1006.53 787.742 1008.85 791.241L1015.52 786.827C1014.17 784.787 1013.44 782.335 1013.44 779.318H1005.44ZM1008.89 791.3C1011.2 794.657 1014.32 797.231 1018.14 799.041L1021.57 791.811C1018.91 790.553 1016.92 788.866 1015.48 786.768L1008.89 791.3ZM1018.14 799.041C1021.99 800.865 1026.28 801.727 1030.91 801.727V793.727C1027.28 793.727 1024.2 793.056 1021.57 791.811L1018.14 799.041ZM1030.91 801.727C1036.04 801.727 1040.66 800.647 1044.61 798.281L1040.49 791.421C1038.04 792.89 1034.91 793.727 1030.91 793.727V801.727ZM1044.61 798.281C1048.57 795.904 1051.52 792.433 1053.48 788.05L1046.18 784.777C1044.83 787.808 1042.92 789.962 1040.49 791.421L1044.61 798.281ZM1053.48 788.069C1055.48 783.663 1056.39 778.482 1056.39 772.67H1048.39C1048.39 777.682 1047.6 781.664 1046.19 784.758L1053.48 788.069ZM1056.39 772.67V679.091H1048.39V772.67H1056.39ZM1202.99 780.341L1199.4 778.564L1202.99 780.341ZM1182.47 803.608L1184.6 806.996L1182.47 803.608ZM1122.9 803.608L1120.77 806.996L1122.9 803.608ZM1102.38 780.341L1105.96 778.564L1102.38 780.341ZM1182.47 685.483L1184.6 682.095L1182.47 685.483ZM1202.99 708.75L1199.4 710.527L1202.99 708.75ZM1189.44 715.845L1185.83 717.579L1185.84 717.587L1185.84 717.595L1189.44 715.845ZM1174.16 698.139L1172.04 701.529L1172.05 701.535L1174.16 698.139ZM1131.14 698.139L1129.03 694.743L1129.02 694.75L1131.14 698.139ZM1115.86 715.845L1112.27 714.096L1112.26 714.104L1112.26 714.112L1115.86 715.845ZM1115.86 773.246L1112.26 774.979L1112.26 774.987L1112.27 774.995L1115.86 773.246ZM1131.14 790.952L1129.02 794.341L1129.03 794.347L1131.14 790.952ZM1174.16 790.952L1172.05 787.556L1172.04 787.562L1174.16 790.952ZM1189.44 773.246L1185.84 771.496L1185.84 771.504L1185.83 771.512L1189.44 773.246ZM1206.47 744.545C1206.47 757.875 1204.06 769.172 1199.4 778.564L1206.57 782.118C1211.89 771.396 1214.47 758.83 1214.47 744.545H1206.47ZM1199.4 778.564C1194.71 788.024 1188.35 795.194 1180.34 800.22L1184.6 806.996C1193.97 801.113 1201.29 792.772 1206.57 782.118L1199.4 778.564ZM1180.34 800.22C1172.34 805.24 1163.16 807.79 1152.68 807.79V815.79C1164.53 815.79 1175.21 812.885 1184.6 806.996L1180.34 800.22ZM1152.68 807.79C1142.2 807.79 1133.02 805.24 1125.02 800.22L1120.77 806.996C1130.16 812.885 1140.83 815.79 1152.68 815.79V807.79ZM1125.02 800.22C1117.01 795.194 1110.65 788.024 1105.96 778.564L1098.79 782.118C1104.08 792.772 1111.39 801.113 1120.77 806.996L1125.02 800.22ZM1105.96 778.564C1101.3 769.172 1098.9 757.875 1098.9 744.545H1090.9C1090.9 758.83 1093.48 771.396 1098.79 782.118L1105.96 778.564ZM1098.9 744.545C1098.9 731.216 1101.3 719.919 1105.96 710.527L1098.79 706.973C1093.48 717.695 1090.9 730.261 1090.9 744.545H1098.9ZM1105.96 710.527C1110.65 701.067 1117.01 693.897 1125.02 688.871L1120.77 682.095C1111.39 687.978 1104.08 696.319 1098.79 706.973L1105.96 710.527ZM1125.02 688.871C1133.02 683.851 1142.2 681.301 1152.68 681.301V673.301C1140.83 673.301 1130.16 676.205 1120.77 682.095L1125.02 688.871ZM1152.68 681.301C1163.16 681.301 1172.34 683.851 1180.34 688.871L1184.6 682.095C1175.21 676.205 1164.53 673.301 1152.68 673.301V681.301ZM1180.34 688.871C1188.35 693.897 1194.71 701.067 1199.4 710.527L1206.57 706.973C1201.29 696.319 1193.97 687.978 1184.6 682.095L1180.34 688.871ZM1199.4 710.527C1204.06 719.919 1206.47 731.216 1206.47 744.545H1214.47C1214.47 730.261 1211.89 717.695 1206.57 706.973L1199.4 710.527ZM1199.13 744.545C1199.13 732.783 1197.16 722.58 1193.03 714.096L1185.84 717.595C1189.3 724.707 1191.13 733.637 1191.13 744.545H1199.13ZM1193.04 714.112C1189.01 705.728 1183.44 699.205 1176.27 694.743L1172.05 701.535C1177.75 705.085 1182.36 710.365 1185.83 717.579L1193.04 714.112ZM1176.28 694.75C1169.22 690.324 1161.32 688.131 1152.68 688.131V696.131C1159.9 696.131 1166.31 697.943 1172.04 701.529L1176.28 694.75ZM1152.68 688.131C1144.05 688.131 1136.13 690.324 1129.03 694.743L1133.26 701.535C1139.03 697.943 1145.47 696.131 1152.68 696.131V688.131ZM1129.02 694.75C1121.9 699.21 1116.34 705.727 1112.27 714.096L1119.46 717.595C1122.98 710.367 1127.6 705.08 1133.27 701.529L1129.02 694.75ZM1112.26 714.112C1108.18 722.591 1106.24 732.789 1106.24 744.545H1114.24C1114.24 733.632 1116.05 724.695 1119.47 717.579L1112.26 714.112ZM1106.24 744.545C1106.24 756.302 1108.18 766.499 1112.26 774.979L1119.47 771.512C1116.05 764.395 1114.24 755.459 1114.24 744.545H1106.24ZM1112.27 774.995C1116.34 783.364 1121.9 789.881 1129.02 794.341L1133.27 787.562C1127.6 784.011 1122.98 778.724 1119.46 771.496L1112.27 774.995ZM1129.03 794.347C1136.13 798.767 1144.05 800.96 1152.68 800.96V792.96C1145.47 792.96 1139.03 791.148 1133.26 787.556L1129.03 794.347ZM1152.68 800.96C1161.32 800.96 1169.22 798.766 1176.28 794.341L1172.04 787.562C1166.31 791.148 1159.9 792.96 1152.68 792.96V800.96ZM1176.27 794.347C1183.44 789.886 1189.01 783.363 1193.04 774.979L1185.83 771.512C1182.36 778.726 1177.75 784.006 1172.05 787.556L1176.27 794.347ZM1193.03 774.995C1197.16 766.511 1199.13 756.308 1199.13 744.545H1191.13C1191.13 755.453 1189.3 764.384 1185.84 771.496L1193.03 774.995ZM1252.97 679.091H1256.97V675.091H1252.97V679.091ZM1252.97 810V814H1256.97V810H1252.97ZM1237.12 810H1233.12V814H1237.12V810ZM1237.12 679.091V675.091H1233.12V679.091H1237.12ZM1248.97 679.091V810H1256.97V679.091H1248.97ZM1252.97 806H1237.12V814H1252.97V806ZM1241.12 810V679.091H1233.12V810H1241.12ZM1237.12 683.091H1252.97V675.091H1237.12V683.091ZM1388.57 679.091H1392.57V675.091H1388.57V679.091ZM1388.57 810V814H1392.57V810H1388.57ZM1373.22 810L1369.94 812.281L1371.13 814H1373.22V810ZM1301.89 707.216L1305.18 704.935L1303.98 703.216H1301.89V707.216ZM1300.61 707.216V703.216H1296.61V707.216H1300.61ZM1300.61 810V814H1304.61V810H1300.61ZM1284.76 810H1280.76V814H1284.76V810ZM1284.76 679.091V675.091H1280.76V679.091H1284.76ZM1300.1 679.091L1303.38 676.809L1302.19 675.091H1300.1V679.091ZM1371.69 782.131L1368.41 784.413L1369.6 786.131H1371.69V782.131ZM1372.97 782.131V786.131H1376.97V782.131H1372.97ZM1372.97 679.091V675.091H1368.97V679.091H1372.97ZM1384.57 679.091V810H1392.57V679.091H1384.57ZM1388.57 806H1373.22V814H1388.57V806ZM1376.51 807.719L1305.18 704.935L1298.6 709.497L1369.94 812.281L1376.51 807.719ZM1301.89 703.216H1300.61V711.216H1301.89V703.216ZM1296.61 707.216V810H1304.61V707.216H1296.61ZM1300.61 806H1284.76V814H1300.61V806ZM1288.76 810V679.091H1280.76V810H1288.76ZM1284.76 683.091H1300.1V675.091H1284.76V683.091ZM1296.81 681.373L1368.41 784.413L1374.98 779.848L1303.38 676.809L1296.81 681.373ZM1371.69 786.131H1372.97V778.131H1371.69V786.131ZM1376.97 782.131V679.091H1368.97V782.131H1376.97ZM1372.97 683.091H1388.57V675.091H1372.97V683.091Z" fill="black" mask="url(#path-186-outside-1_223_1622)"/>
</g>
<ellipse cx="1182" cy="385" rx="33" ry="64" fill="#72FB07"/>
<ellipse cx="1182" cy="385" rx="33" ry="64" fill="#72FB07"/>
<ellipse cx="1182" cy="385" rx="33" ry="64" fill="#72FB07"/>
<ellipse cx="1225" cy="385" rx="33" ry="64" fill="#72FB07"/>
<ellipse cx="1225" cy="385" rx="33" ry="64" fill="#72FB07"/>
<ellipse cx="1225" cy="385" rx="33" ry="64" fill="#72FB07"/>
<ellipse cx="1273" cy="385" rx="33" ry="64" fill="#72FB07"/>
<ellipse cx="1273" cy="385" rx="33" ry="64" fill="#72FB07"/>
<ellipse cx="1273" cy="385" rx="33" ry="64" fill="#72FB07"/>
<ellipse cx="1311" cy="385" rx="33" ry="64" fill="#72FB07"/>
<ellipse cx="1311" cy="385" rx="33" ry="64" fill="#72FB07"/>
<ellipse cx="1311" cy="385" rx="33" ry="64" fill="#72FB07"/>
<ellipse cx="1354" cy="385" rx="33" ry="64" fill="#72FB07"/>
<ellipse cx="1354" cy="385" rx="33" ry="64" fill="#72FB07"/>
<ellipse cx="1354" cy="385" rx="33" ry="64" fill="#72FB07"/>
<ellipse cx="1402" cy="385" rx="33" ry="64" fill="#72FB07"/>
<ellipse cx="1402" cy="385" rx="33" ry="64" fill="#72FB07"/>
<ellipse cx="1402" cy="385" rx="33" ry="64" fill="#72FB07"/>
<ellipse cx="1420" cy="382" rx="33" ry="64" fill="#72FB07"/>
<ellipse cx="1420" cy="382" rx="33" ry="64" fill="#72FB07"/>
<ellipse cx="1420" cy="382" rx="33" ry="64" fill="#72FB07"/>
<ellipse cx="1463" cy="382" rx="33" ry="64" fill="#72FB07"/>
<ellipse cx="1463" cy="382" rx="33" ry="64" fill="#72FB07"/>
<ellipse cx="1463" cy="382" rx="33" ry="64" fill="#72FB07"/>
<ellipse cx="1420" cy="382" rx="33" ry="64" fill="#72FB07"/>
<ellipse cx="1420" cy="382" rx="33" ry="64" fill="#72FB07"/>
<ellipse cx="1420" cy="382" rx="33" ry="64" fill="#72FB07"/>
<ellipse cx="1463" cy="382" rx="33" ry="64" fill="#72FB07"/>
<ellipse cx="1463" cy="382" rx="33" ry="64" fill="#72FB07"/>
<ellipse cx="1463" cy="382" rx="33" ry="64" fill="#72FB07"/>
<ellipse cx="402" cy="80" rx="33" ry="64" fill="#72FB07"/>
<ellipse cx="402" cy="80" rx="33" ry="64" fill="#72FB07"/>
<ellipse cx="402" cy="80" rx="33" ry="64" fill="#72FB07"/>
<ellipse cx="450" cy="80" rx="33" ry="64" fill="#72FB07"/>
<ellipse cx="450" cy="80" rx="33" ry="64" fill="#72FB07"/>
<ellipse cx="450" cy="80" rx="33" ry="64" fill="#72FB07"/>
<ellipse cx="402" cy="80" rx="33" ry="64" fill="#72FB07"/>
<ellipse cx="402" cy="80" rx="33" ry="64" fill="#72FB07"/>
<ellipse cx="402" cy="80" rx="33" ry="64" fill="#72FB07"/>
<ellipse cx="450" cy="80" rx="33" ry="64" fill="#72FB07"/>
<ellipse cx="450" cy="80" rx="33" ry="64" fill="#72FB07"/>
<ellipse cx="450" cy="80" rx="33" ry="64" fill="#72FB07"/>
<ellipse cx="554.961" cy="475.505" rx="70.8969" ry="133.894" transform="rotate(2.18974 554.961 475.505)" fill="#010402"/>
<ellipse cx="554.961" cy="475.505" rx="70.8969" ry="133.894" transform="rotate(2.18974 554.961 475.505)" fill="url(#paint4_linear_223_1622)"/>
<path d="M289.602 305.412L366.549 303.909L360.31 335.8L289.602 305.412Z" fill="url(#paint5_linear_223_1622)"/>
<ellipse cx="367.961" cy="475.505" rx="70.8969" ry="133.894" transform="rotate(2.18974 367.961 475.505)" fill="#010402"/>
<ellipse cx="367.961" cy="475.505" rx="70.8969" ry="133.894" transform="rotate(2.18974 367.961 475.505)" fill="url(#paint6_linear_223_1622)"/>
<ellipse cx="371" cy="310.5" rx="33" ry="58.5" fill="black"/>
<path d="M625.235 361.59L555.493 329.046L575.141 303.164L625.235 361.59Z" fill="url(#paint7_linear_223_1622)"/>
<ellipse cx="558" cy="310.5" rx="33" ry="58.5" fill="black"/>
<path d="M796.033 284.23L754.505 349.026L731.465 326.112L796.033 284.23Z" fill="url(#paint8_linear_223_1622)"/>
<ellipse cx="740.961" cy="481.505" rx="70.8969" ry="133.894" transform="rotate(2.18974 740.961 481.505)" fill="#010402"/>
<ellipse cx="740.961" cy="481.505" rx="70.8969" ry="133.894" transform="rotate(2.18974 740.961 481.505)" fill="url(#paint9_linear_223_1622)"/>
<ellipse cx="744" cy="316.5" rx="33" ry="58.5" fill="black"/>
<path d="M993.382 321.185L920.95 347.198L916.671 314.985L993.382 321.185Z" fill="url(#paint10_linear_223_1622)"/>
<ellipse cx="929.961" cy="489.505" rx="70.8969" ry="133.894" transform="rotate(2.18974 929.961 489.505)" fill="#010402"/>
<ellipse cx="929.961" cy="489.505" rx="70.8969" ry="133.894" transform="rotate(2.18974 929.961 489.505)" fill="url(#paint11_linear_223_1622)"/>
<ellipse cx="927" cy="324.5" rx="33" ry="58.5" fill="black"/>
</g>
<defs>
<filter id="filter0_d_223_1622" x="-75" y="-83" width="1662" height="550" filterUnits="userSpaceOnUse" color-interpolation-filters="sRGB">
<feFlood flood-opacity="0" result="BackgroundImageFix"/>
<feColorMatrix in="SourceAlpha" type="matrix" values="0 0 0 0 0 0 0 0 0 0 0 0 0 0 0 0 0 0 127 0" result="hardAlpha"/>
<feOffset dx="10" dy="4"/>
<feGaussianBlur stdDeviation="2"/>
<feComposite in2="hardAlpha" operator="out"/>
<feColorMatrix type="matrix" values="0 0 0 0 0 0 0 0 0 0 0 0 0 0 0 0 0 0 0.25 0"/>
<feBlend mode="normal" in2="BackgroundImageFix" result="effect1_dropShadow_223_1622"/>
<feBlend mode="normal" in="SourceGraphic" in2="effect1_dropShadow_223_1622" result="shape"/>
</filter>
<filter id="filter1_d_223_1622" x="-75" y="-83" width="439" height="135" filterUnits="userSpaceOnUse" color-interpolation-filters="sRGB">
<feFlood flood-opacity="0" result="BackgroundImageFix"/>
<feColorMatrix in="SourceAlpha" type="matrix" values="0 0 0 0 0 0 0 0 0 0 0 0 0 0 0 0 0 0 127 0" result="hardAlpha"/>
<feOffset dx="10" dy="4"/>
<feGaussianBlur stdDeviation="2"/>
<feComposite in2="hardAlpha" operator="out"/>
<feColorMatrix type="matrix" values="0 0 0 0 0 0 0 0 0 0 0 0 0 0 0 0 0 0 0.25 0"/>
<feBlend mode="normal" in2="BackgroundImageFix" result="effect1_dropShadow_223_1622"/>
<feBlend mode="normal" in="SourceGraphic" in2="effect1_dropShadow_223_1622" result="shape"/>
</filter>
<filter id="filter2_d_223_1622" x="1389" y="7" width="192" height="68" filterUnits="userSpaceOnUse" color-interpolation-filters="sRGB">
<feFlood flood-opacity="0" result="BackgroundImageFix"/>
<feColorMatrix in="SourceAlpha" type="matrix" values="0 0 0 0 0 0 0 0 0 0 0 0 0 0 0 0 0 0 127 0" result="hardAlpha"/>
<feOffset dx="10" dy="4"/>
<feGaussianBlur stdDeviation="2"/>
<feComposite in2="hardAlpha" operator="out"/>
<feColorMatrix type="matrix" values="0 0 0 0 0 0 0 0 0 0 0 0 0 0 0 0 0 0 0.25 0"/>
<feBlend mode="normal" in2="BackgroundImageFix" result="effect1_dropShadow_223_1622"/>
<feBlend mode="normal" in="SourceGraphic" in2="effect1_dropShadow_223_1622" result="shape"/>
</filter>
<filter id="filter3_d_223_1622" x="350" y="148" width="394" height="153" filterUnits="userSpaceOnUse" color-interpolation-filters="sRGB">
<feFlood flood-opacity="0" result="BackgroundImageFix"/>
<feColorMatrix in="SourceAlpha" type="matrix" values="0 0 0 0 0 0 0 0 0 0 0 0 0 0 0 0 0 0 127 0" result="hardAlpha"/>
<feOffset dx="10" dy="4"/>
<feGaussianBlur stdDeviation="2"/>
<feComposite in2="hardAlpha" operator="out"/>
<feColorMatrix type="matrix" values="0 0 0 0 0 0 0 0 0 0 0 0 0 0 0 0 0 0 0.25 0"/>
<feBlend mode="normal" in2="BackgroundImageFix" result="effect1_dropShadow_223_1622"/>
<feBlend mode="normal" in="SourceGraphic" in2="effect1_dropShadow_223_1622" result="shape"/>
</filter>
<filter id="filter4_d_223_1622" x="610" y="-62" width="380" height="207" filterUnits="userSpaceOnUse" color-interpolation-filters="sRGB">
<feFlood flood-opacity="0" result="BackgroundImageFix"/>
<feColorMatrix in="SourceAlpha" type="matrix" values="0 0 0 0 0 0 0 0 0 0 0 0 0 0 0 0 0 0 127 0" result="hardAlpha"/>
<feOffset dx="10" dy="4"/>
<feGaussianBlur stdDeviation="2"/>
<feComposite in2="hardAlpha" operator="out"/>
<feColorMatrix type="matrix" values="0 0 0 0 0 0 0 0 0 0 0 0 0 0 0 0 0 0 0.25 0"/>
<feBlend mode="normal" in2="BackgroundImageFix" result="effect1_dropShadow_223_1622"/>
<feBlend mode="normal" in="SourceGraphic" in2="effect1_dropShadow_223_1622" result="shape"/>
</filter>
<filter id="filter5_d_223_1622" x="781" y="164" width="357" height="83" filterUnits="userSpaceOnUse" color-interpolation-filters="sRGB">
<feFlood flood-opacity="0" result="BackgroundImageFix"/>
<feColorMatrix in="SourceAlpha" type="matrix" values="0 0 0 0 0 0 0 0 0 0 0 0 0 0 0 0 0 0 127 0" result="hardAlpha"/>
<feOffset dx="10" dy="4"/>
<feGaussianBlur stdDeviation="2"/>
<feComposite in2="hardAlpha" operator="out"/>
<feColorMatrix type="matrix" values="0 0 0 0 0 0 0 0 0 0 0 0 0 0 0 0 0 0 0.25 0"/>
<feBlend mode="normal" in2="BackgroundImageFix" result="effect1_dropShadow_223_1622"/>
<feBlend mode="normal" in="SourceGraphic" in2="effect1_dropShadow_223_1622" result="shape"/>
</filter>
<filter id="filter6_d_223_1622" x="-65" y="594" width="1529" height="308" filterUnits="userSpaceOnUse" color-interpolation-filters="sRGB">
<feFlood flood-opacity="0" result="BackgroundImageFix"/>
<feColorMatrix in="SourceAlpha" type="matrix" values="0 0 0 0 0 0 0 0 0 0 0 0 0 0 0 0 0 0 127 0" result="hardAlpha"/>
<feOffset dx="10" dy="4"/>
<feGaussianBlur stdDeviation="2"/>
<feComposite in2="hardAlpha" operator="out"/>
<feColorMatrix type="matrix" values="0 0 0 0 0 0 0 0 0 0 0 0 0 0 0 0 0 0 0.25 0"/>
<feBlend mode="normal" in2="BackgroundImageFix" result="effect1_dropShadow_223_1622"/>
<feBlend mode="normal" in="SourceGraphic" in2="effect1_dropShadow_223_1622" result="shape"/>
</filter>
<filter id="filter7_d_223_1622" x="41.8523" y="677.301" width="1350.71" height="142.489" filterUnits="userSpaceOnUse" color-interpolation-filters="sRGB">
<feFlood flood-opacity="0" result="BackgroundImageFix"/>
<feColorMatrix in="SourceAlpha" type="matrix" values="0 0 0 0 0 0 0 0 0 0 0 0 0 0 0 0 0 0 127 0" result="hardAlpha"/>
<feOffset dy="4"/>
<feGaussianBlur stdDeviation="2"/>
<feComposite in2="hardAlpha" operator="out"/>
<feColorMatrix type="matrix" values="0 0 0 0 0 0 0 0 0 0 0 0 0 0 0 0 0 0 0.25 0"/>
<feBlend mode="normal" in2="BackgroundImageFix" result="effect1_dropShadow_223_1622"/>
<feBlend mode="normal" in="SourceGraphic" in2="effect1_dropShadow_223_1622" result="shape"/>
</filter>
<linearGradient id="paint0_linear_223_1622" x1="228.764" y1="319.447" x2="128.571" y2="324.131" gradientUnits="userSpaceOnUse">
<stop stop-color="#DEFF10"/>
<stop offset="1" stop-color="#212602"/>
</linearGradient>
<linearGradient id="paint1_linear_223_1622" x1="158.961" y1="349.611" x2="158.961" y2="617.399" gradientUnits="userSpaceOnUse">
<stop/>
<stop offset="1" stop-color="#454545" stop-opacity="0"/>
</linearGradient>
<linearGradient id="paint2_linear_223_1622" x1="1009.6" y1="311.412" x2="1108.04" y2="330.669" gradientUnits="userSpaceOnUse">
<stop stop-color="#DEFF10"/>
<stop offset="1" stop-color="#212602"/>
</linearGradient>
<linearGradient id="paint3_linear_223_1622" x1="1087.96" y1="347.611" x2="1087.96" y2="615.399" gradientUnits="userSpaceOnUse">
<stop/>
<stop offset="1" stop-color="#454545" stop-opacity="0"/>
</linearGradient>
<linearGradient id="paint4_linear_223_1622" x1="554.961" y1="341.611" x2="554.961" y2="609.399" gradientUnits="userSpaceOnUse">
<stop/>
<stop offset="1" stop-color="#454545" stop-opacity="0"/>
</linearGradient>
<linearGradient id="paint5_linear_223_1622" x1="289.602" y1="305.412" x2="388.039" y2="324.669" gradientUnits="userSpaceOnUse">
<stop stop-color="#DEFF10"/>
<stop offset="1" stop-color="#212602"/>
</linearGradient>
<linearGradient id="paint6_linear_223_1622" x1="367.961" y1="341.611" x2="367.961" y2="609.399" gradientUnits="userSpaceOnUse">
<stop/>
<stop offset="1" stop-color="#454545" stop-opacity="0"/>
</linearGradient>
<linearGradient id="paint7_linear_223_1622" x1="625.235" y1="361.59" x2="545.344" y2="300.943" gradientUnits="userSpaceOnUse">
<stop stop-color="#DEFF10"/>
<stop offset="1" stop-color="#212602"/>
</linearGradient>
<linearGradient id="paint8_linear_223_1622" x1="796.033" y1="284.23" x2="725.302" y2="355.349" gradientUnits="userSpaceOnUse">
<stop stop-color="#DEFF10"/>
<stop offset="1" stop-color="#212602"/>
</linearGradient>
<linearGradient id="paint9_linear_223_1622" x1="740.961" y1="347.611" x2="740.961" y2="615.399" gradientUnits="userSpaceOnUse">
<stop/>
<stop offset="1" stop-color="#454545" stop-opacity="0"/>
</linearGradient>
<linearGradient id="paint10_linear_223_1622" x1="993.382" y1="321.185" x2="893.953" y2="334.393" gradientUnits="userSpaceOnUse">
<stop stop-color="#DEFF10"/>
<stop offset="1" stop-color="#212602"/>
</linearGradient>
<linearGradient id="paint11_linear_223_1622" x1="929.961" y1="355.611" x2="929.961" y2="623.399" gradientUnits="userSpaceOnUse">
<stop/>
<stop offset="1" stop-color="#454545" stop-opacity="0"/>
</linearGradient>
<clipPath id="clip0_223_1622">
<rect width="1440" height="1024" fill="white"/>
</clipPath>
</defs>
</svg>
